<svg version="1.1" xmlns="http://www.w3.org/2000/svg" viewBox="0 0 232.27921195652175 337.9305366847826">
  <defs>
    <style>
      @font-face {
        font-family: "Virgil";
        src: url("https://excalidraw.com/FG_Virgil.ttf");
      }
      @font-face {
        font-family: "Cascadia";
        src: url("https://excalidraw.com/Cascadia.ttf");
      }
    </style>
  </defs>
  <g transform="translate(131.68393342391437 104.14062499999955)"><path d="M0 0 C0 0, 0 0, 0 0 M0 0 C0 0, 0 0, 0 0" style="stroke: rgb(230, 73, 128); stroke-width: 0.5; fill: none;"></path><path d="M0 0 C0 0, 0 0, 0 0 M0 0 C0 0, 0 0, 0 0 M0.009656129503764668 -0.025181963103587272 C0.024731972674851565 0.08624703461863462, 0.0030605329463047376 0.18093434693353222, -0.023747540116870615 0.2755616711978588 M0.0034479995247253155 0.009207068814766448 C-0.009399292055292378 0.10266708464101292, -0.008582894116961335 0.22028338462137895, -0.0033881089261161464 0.2756239188211883 M0 0.2802309782609882 C0 0.2802309782609882, 0 0.2802309782609882, 0 0.2802309782609882 M0 0.2802309782609882 C0 0.2802309782609882, 0 0.2802309782609882, 0 0.2802309782609882 M0.009334764147400199 0.26721809374710653 C0.018807911127196795 0.2243417171185328, -0.0008324889927876981 0.17200138220971306, -0.02065768468168644 0.006815774214258212 M-0.005892517237560204 0.27697433889534157 C0.010411582817264644 0.18269945471420831, 0.001686573690044618 0.07978319157901849, -0.013302382752485256 0.0019457420124965284" style="stroke: rgb(11, 114, 133); stroke-width: 1; fill: none;"></path></g><g transform="translate(10 10)"><path d="M-0.12760808213482958 -0.7347007208485996 L213.34088877458103 0.7535013412781392 L212.75357658026942 318.66820852407994 L-1.137923996911007 316.8768847582276" style="stroke: none; stroke-width: 0; fill: rgb(255, 255, 255);"></path><path d="M-0.9161343015050765 -1.1064297450291216 C68.62093207422872 0.8976526705614636, 141.29084459756635 1.0692738531344028, 213.12511326620967 -1.2493176247722597 M0.34947846257768733 0.7304246690676843 C67.05807621800561 -1.7556038851451028, 132.14797917413654 -1.6686321834125581, 212.81901022935105 0.32776397482265374 M211.01502775843755 1.3753596847676695 C211.62512993843174 65.43639255405141, 211.63390080446686 129.1057904088049, 212.04480353566396 319.2196062871535 M212.7414249642377 -0.5980442576014915 C211.13861575176227 123.33820621832497, 211.53367201910572 247.62044163123338, 212.04792848908627 318.1282385422389 M211.08967428248235 319.0111100750867 C164.20252495702238 319.38388028172307, 118.1187950719693 318.66498652594373, -0.786154254201112 318.4469785179024 M211.98660127015404 318.20266777388105 C143.28557627552573 315.944496135242, 75.35105758960805 317.4824091482943, -0.32327311845211465 317.4271986246024 M-0.6532724595883487 318.9753652325528 C0.7972888268861985 199.86754635982012, 1.5850310974659285 80.64981605880597, 0.3421653039491355 0.6560703933991567 M-0.1634897171429365 318.349220389778 C0.34903817571855567 246.03494846836816, 0.0589535325144489 173.5102123218905, 0.09768008537016004 -0.5276843633081193" style="stroke: rgb(11, 114, 133); stroke-width: 2; fill: none;"></path></g><g transform="translate(25.123980978262352 20.56810461956502)"><path d="M28.955511784181 1.5093342009931803 L59.32529222876167 34.674381071701646 L31.04871211014688 64.57197678048652 L-1.497925603762269 35.63318079151213" style="stroke: none; stroke-width: 0; fill: rgb(230, 73, 128);"></path><path d="M28.74198871292174 -1.4628385547548532 C38.704061192590906 13.44523718302542, 48.55549664380061 24.34907884003067, 56.833601194474454 34.256464993581176 M30.83049328904599 0.7415555389598012 C38.111803339550015 9.029926047486104, 46.43503523984499 20.29527888317857, 58.626743923913295 33.04915773589164 M60.20935793504452 33.41008905135095 C50.59949254345641 42.48136825318917, 40.321940237950116 52.03826838304374, 31.83260744251311 67.98356543068331 M57.40386570621615 33.49471127707511 C50.05711149530157 42.76874734009094, 43.12301391460695 50.91034405069455, 30.281063097529113 65.38648870826256 M31.228612596169114 64.54833755974215 C22.954957278255087 55.933339233327885, 13.715554424371284 47.01948288487573, 0.5871946755796671 34.47418490611017 M30.3094132123515 65.874881299739 C18.128428364092898 54.787098831937364, 8.8076321211778 41.967610609978564, -0.5722956778481603 34.71533459145576 M1.4853818360716105 34.86660901270807 C8.718587634731085 26.211194511968642, 15.908794990386813 14.796512289997189, 30.932703310623765 -1.4784928802400827 M0.5952222226187587 33.97190803010017 C8.620773899275811 23.989933954272416, 16.20413280455396 14.929989661928264, 29.249816852621734 -0.09070709627121687" style="stroke: rgb(11, 114, 133); stroke-width: 2; fill: none;"></path></g><g transform="translate(154.00475543478387 250.00297214673856)"><path d="M31.50933420099318 1.0712161418050528 L58.92845715865826 35.04871211014688 L28.382268900051713 64.69178227667254 L1.6331807915121317 33.269987082108855" style="stroke: none; stroke-width: 0; fill: rgb(230, 73, 128);"></path><path d="M28.537161445245147 -0.679876571521163 C37.713805814747715 7.169333559086196, 43.21044941767867 13.70995885953086, 58.51054108053779 33.82170515693724 M30.7415555389598 -0.3725788714364171 C40.01753602593101 12.292031679975828, 52.02312777235893 25.738763390968582, 57.303233822848256 33.89306922536343 M57.66416513830757 34.40859776176512 C47.93757808840479 43.34746599834872, 38.73197812597287 57.64102551250606, 31.793857550248504 65.48751592595619 M57.74878736403173 33.208055692724884 C49.35043331273442 43.96701793122635, 39.793778647734655 54.93893466256969, 29.19678082782775 65.99704795383406 M28.35862967930734 67.60295772512 C19.862887346893082 56.950231154405124, 10.647727521843741 46.921922792531475, 0.4741849061101675 35.379602843895555 M29.685173419304192 65.19583111309004 C23.468341660898357 59.29744470840332, 15.312899906400768 50.23059938365128, 0.7153345914557576 33.916064160875976 M0.8666090127080679 34.08365243114531 C12.143716104160994 20.970287238340823, 20.642980961892754 12.044750454369932, 28.521507119759917 -0.32982206903398037 M-0.028091969899833202 33.97252096515149 C7.376891942601652 24.101906683947888, 15.694608624000105 15.53097093934193, 29.909292903728783 -0.5222441079095006" style="stroke: rgb(11, 114, 133); stroke-width: 2; fill: none;"></path></g><g transform="translate(60.94259510869733 112.05078125)"><path d="M59.319006462070234 -0.034407716431886115 C67.90654187697014 0.4846858319682307, 78.30970728484012 6.099860345117082, 85.52300100646934 11.715081589814282 C92.73629472809857 17.330302834511482, 99.38446649162722 25.50189403907833, 102.59876879184557 33.65691975175132 C105.81307109206392 41.811945464424305, 106.40728822780783 51.908248571425844, 104.80881480777941 60.6452358658522 C103.210341387751 69.38222316027856, 98.98380588800433 79.25089916812112, 93.0079282716751 86.07884351830944 C87.03205065534587 92.90678786849776, 77.5587208363478 98.68445055220606, 68.95354910980403 101.61290196698214 C60.34837738326026 104.54135338175821, 50.18436038572547 105.5836246580906, 41.37689791241244 103.64955200696589 C32.56943543909941 101.71547935584118, 22.86732053608365 96.54773342567765, 16.10877426992586 90.00846606023387 C9.35022800376807 83.4691986947901, 2.995318772272943 73.2861346718504, 0.8256203154656987 64.41394781430319 C-1.3440781413415457 55.541760956755965, 0.1815987575806992 45.24694544142061, 3.0905835290823944 36.77534491495056 C5.999568300584089 28.30374438848051, 11.50669068925087 19.545813173786986, 18.27952894447587 13.584344655482887 C25.05236719970087 7.62287613717879, 36.3800241041469 3.1053069288229835, 43.727613060432404 1.0065338051259758 C51.07520201671791 -1.092239318571032, 58.737700472204814 0.7720395715132101, 62.36506268218892 0.9917059133008408 C65.99242489217302 1.2113722550884714, 65.54063176804267 1.550667874660018, 65.49178632033703 2.3245318558517596 M54.38982370107347 0.9229743221530313 C62.779665370678906 0.4509419285217291, 73.83220091255771 2.9065473456498188, 81.81382396018779 7.9639476092560315 C89.79544700781787 13.021347872862243, 98.15818258988821 22.72997712134638, 102.27956198685398 31.267375903790306 C106.40094138381974 39.80477468623423, 107.55598840440469 50.33518646853423, 106.5421003419824 59.18834030391959 C105.52821227956012 68.04149413930494, 101.59065337127879 77.29287166692748, 96.1962336123203 84.38629891610245 C90.8018138533618 91.47972616527741, 82.79175145272059 98.36560336780744, 74.17558178823147 101.74890379896941 C65.55941212374235 105.13220423013138, 53.77618400144475 106.44831878445181, 44.49921562538558 104.68610150307424 C35.222247249326415 102.92388422169667, 25.235688524501136 96.93062605998446, 18.513771531876458 91.17560011070395 C11.79185453925178 85.42057416142345, 7.255198318832921 78.48610358597846, 4.167713669637514 70.15594580739122 C1.0802290204421077 61.82578802880398, -1.8795004546413214 50.102162794886745, -0.011136363295982221 41.19465343918051 C1.857227728049357 32.28714408347428, 8.776708265424013 23.026009817701045, 15.37789821770955 16.71088967315383 C21.979088169995087 10.395769528606614, 32.91156669725717 5.936068350895129, 39.596003350417234 3.303932571897228 C46.2804400035773 0.6717967928993276, 52.87372570060041 1.3907240008420867, 55.48451813666992 0.9180749991664285 C58.09531057273943 0.44542599749077044, 55.26677033461576 -0.3732243416264728, 55.260757966834284 0.4680385618432794" style="stroke: none; stroke-width: 0; fill: rgb(230, 73, 128);"></path><path d="M73.94541952902364 4.661748985981646 C82.20325106262742 7.5105695553868035, 91.07874984536407 15.656718400676397, 96.48445384085336 23.159103332558548 C101.89015783634265 30.6614882644407, 105.64052321667066 40.88381394053082, 106.37964350195938 49.67605857727456 C107.1187637872481 58.4683032140183, 105.30358570041585 68.0997294453388, 100.91917555258573 75.91257115302098 C96.5347654047556 83.72541286070316, 87.87504155492074 91.7152979150567, 80.07318261497859 96.5531088233677 C72.27132367503644 101.3909197316787, 63.273265893957664 104.8360169497576, 54.10802191293279 104.93943660288699 C44.94277793190792 105.04285625601636, 32.98640009703337 101.96959326320749, 25.081718728829344 97.173626742144 C17.177037360625317 92.3776602210805, 10.68666193310457 84.12128943114656, 6.6799337037086275 76.16363747650601 C2.6732054743126845 68.20598552186546, 0.6172696157131128 58.31655589674799, 1.041349352453686 49.42771501430067 C1.4654290891942594 40.53887413185334, 4.434130632191663 30.27996754024677, 9.224412124152067 22.830592181822073 C14.01469361611247 15.381216823397377, 21.38707838977816 8.33776668391936, 29.783038304216113 4.7314628637524905 C38.178998218654066 1.1251590435856205, 51.692625023722194 0.9526806439039829, 59.60017161077979 1.192769260820853 C67.50771819783738 1.4328578777377234, 73.74149489602674 5.11451593163168, 77.22831782656168 6.171994565253712 C80.71514075709662 7.229473198875744, 80.95565532550762 6.938005640950846, 80.52110919398943 7.537641062553043 M54.96444209592896 -1.1840824588414662 C63.67084485630678 -1.5787255553701935, 73.98172022701301 3.2421323481544073, 81.42688519795826 8.460791175444065 C88.8720501689035 13.679450002733724, 95.76125592829064 21.90239097248305, 99.63543192160044 30.12787050489648 C103.50960791491025 38.35335003730991, 105.41067789130221 48.92440981801307, 104.67194115781713 57.81366836992465 C103.93320442433205 66.70292692183624, 100.4777896747283 76.28450787041099, 95.20301152068994 83.46342181636598 C89.92823336665158 90.64233576232097, 81.24978754657822 97.28611884834433, 73.02327223358698 100.88715204565455 C64.79675692059574 104.48818524296476, 54.920729769235855 106.50902794112544, 45.84391964274252 105.06962100022727 C36.767109516249185 103.6302140593291, 25.612723063480853 98.20190849661279, 18.562411474626956 92.25071040026553 C11.512099885773058 86.29951230391828, 6.707277703173849 77.61465254844033, 3.542050109619133 69.36243242214373 C0.3768225160644172 61.11021229584711, -2.3584571371899417 51.57169637192223, -0.4289540867013386 42.737389642485866 C1.5005489637872647 33.9030829130495, 8.834227389618825 22.94938509579554, 15.119068412550753 16.356592045525552 C21.40390943548268 9.763798995255563, 30.730446171157144 5.819994887490289, 37.280092050890225 3.180631340865922 C43.82973793062331 0.5412677942415556, 51.66088940781576 0.6871736739592352, 54.416943690949246 0.5204107657793529 C57.17299797408273 0.3536478575994705, 53.71201223132279 1.3818154028571974, 53.81641774969114 2.1800538917866277" style="stroke: rgb(11, 114, 133); stroke-width: 2; fill: none;"></path></g></svg>