<svg version="1.1" xmlns="http://www.w3.org/2000/svg" viewBox="0 0 232.27921195652175 337.9305366847826">
  <defs>
    <style>
      @font-face {
        font-family: "Virgil";
        src: url("https://excalidraw.com/FG_Virgil.ttf");
      }
      @font-face {
        font-family: "Cascadia";
        src: url("https://excalidraw.com/Cascadia.ttf");
      }
    </style>
  </defs>
  <rect x="0" y="0" width="232.27921195652175" height="337.9305366847826" fill="#f1f3f5"></rect><g transform="translate(10 10)"><path d="M0 0 C0 0, 0 0, 0 0 M0 0 C0 0, 0 0, 0 0 M-0.8583412459958686 11.189893126904547 C5.847793807916359 5.603333841357633, 8.788338961535533 1.191256137829793, 10.830688293230665 -0.14678656504603604 M-0.0957019410003318 11.751784566461621 C3.341544926172656 8.109986290681867, 7.309468098484445 3.913126318938568, 9.988410739553107 -0.12658013449164618 M0.46936464330174665 22.661054005562423 C5.004642063827973 17.73091993745619, 11.93142645638526 12.293124889654347, 21.287245108092094 -1.5941654914826628 M-0.5880360936560418 24.870080316155313 C3.5997347628679455 18.402124766909836, 8.208785604674391 14.398337801579258, 21.448029199892545 -0.38527019189898937 M-0.11115498664793577 38.758273279109346 C13.023647159407531 21.399423775159182, 22.515335859707875 9.341969794705065, 30.751963773227132 0.7391301394685392 M-0.44476233619269934 37.1979034038273 C12.86057747833489 23.151387354160597, 24.462001641662972 7.793228463031351, 31.829988365477718 0.06422266748391436 M-0.8737885002047605 50.65611897096865 C11.757036522318016 37.08627871174656, 19.254798469730403 23.956784028707677, 41.147796635139514 0.8858184095798975 M-0.7008914332837648 48.570436314352676 C11.943329902749694 35.26324798064373, 24.523027041033867 19.731416893333694, 42.14098271783047 -1.02878401536951 M0.960707808015755 60.60759167698811 C16.89759045415412 41.54422156459255, 32.5447383027844 25.84985082717614, 54.87098392820424 -0.24174716552358788 M-0.12661815610725569 60.29597749514173 C14.897939997600545 42.21694426765565, 32.92731162531943 23.19564125706279, 52.8489077647633 0.11976737672823745 M-0.6489258276113858 74.96254491279272 C25.451591004036413 44.309332853050556, 48.107493712108166 18.696121177763686, 62.59120338679631 1.370349429783083 M-0.5352969968506684 73.93983456338195 C15.213009673474891 54.379160194414304, 31.435696206352013 37.66591015967036, 63.8474402640887 -0.8193467890353432 M-1.4705116727111829 85.1723946940075 C21.841724409683454 61.29720629019823, 41.48705518190152 35.47478259865578, 75.00157024529072 1.0875867111249136 M0.6854988022984969 85.95403388626085 C18.003298710068144 64.03723834689828, 33.82745682178189 45.44138415807107, 74.58103822361919 -0.4136313954727484 M0.09550647810085877 96.7948291164802 C20.074273377867573 74.11149657129096, 38.23199049042014 50.64718247036736, 86.56863723806248 -2.1229943058731067 M0.04291822016223534 98.30703016118869 C32.50775351304122 59.449078712915956, 66.82894503806952 21.600807152790026, 84.16994090116725 0.40612742460351114 M1.3902994171807492 110.72497003539027 C39.115619456766794 64.45817406644328, 76.52092255006758 21.840932138920266, 95.2823945994866 -1.4427901055859707 M0.688068572534057 109.33986809490742 C33.43824374001186 70.52876815467607, 68.61828951139641 32.974560237270936, 95.5351688045454 0.22086228838094257 M-0.6897016500870166 119.97363054658553 C20.987166400335965 94.9194586420123, 42.6879942881623 69.6091371781114, 106.40627006393802 -1.9516346723886713 M0.6046613382359567 122.16943988482734 C28.953789646252794 86.98041358302346, 60.47204231304299 52.32512433657075, 105.52352369156611 -1.001775436952947 M0.6814310106725685 134.8984766656909 C39.73758648051679 89.87700254384359, 77.22425861115664 44.29895174256181, 115.57106983680131 0.37691008956655736 M-0.6417517249195583 133.5446468981359 C29.681575969488836 98.9809685961585, 61.10148821955228 62.433779297748984, 116.37652954105141 0.7222939460121083 M1.353062633834483 144.20873690833147 C29.165866834862626 112.12776557590512, 60.3082990825204 76.6764950761594, 127.14921471043243 -0.09328396454083787 M-0.43483760912000946 146.47610925202068 C36.91787090837129 103.6419434513192, 73.57128903640269 62.63887574269771, 126.47966866879477 0.24974014401805533 M1.1134856522700773 159.8328403873156 C38.39553241069219 113.33245119248716, 78.36418790725408 68.86512519927506, 138.00615567122438 1.9060053208512482 M0.29158884288050857 158.8576383434369 C27.58315201683741 125.87556232097282, 56.47465279877203 92.65039483452365, 136.66586394835764 -0.21769718009851446 M-0.9089062051812873 170.83510954634897 C43.556575214335886 125.71405278189513, 84.40196860401119 74.97205590996059, 148.1828132396893 0.7544411892570184 M0.11540850564372532 170.43133178053338 C55.597118954072926 106.04925968461949, 110.86055904250475 42.40782529499445, 148.35822841775078 -0.4948578048584519 M-0.7336514596724327 182.83171339744175 C55.14040264139685 122.99468144903622, 105.15987378731249 62.66571638448348, 159.28220368318478 -0.5918355442232119 M0.6687880746905256 182.7879622318053 C33.842631818362804 145.60882915319914, 68.43679215740015 107.15569490730361, 158.4247942620799 0.2621695018421677 M-0.6138481249240761 196.22726042853324 C34.75299498920481 152.8514155345744, 72.71746393263344 112.2470175383526, 170.94011525517752 1.7317630161625241 M0.3323573588343718 194.89691093257977 C62.13859428555095 122.84757099664283, 123.20826867714061 52.42382062424869, 169.4472427690646 0.07790345892425708 M0.4007297634680649 207.944740799438 C43.67240936973702 159.0273174080077, 83.94707789374185 110.42340816807517, 180.9058654872594 0.09185393804118076 M0.5474120528262263 207.12589600724644 C62.42269838226752 136.38897175373873, 122.35578886780887 66.87782449747527, 179.64653046236216 0.7301063243712146 M-0.8813225309962164 218.955706488525 C74.80481771863565 135.615218157591, 148.17207389313856 51.52590840322159, 191.18363199805128 1.4270864688297926 M0.26259265437742063 220.1828116593605 C47.95687152024096 164.34038588863757, 97.82305159852456 108.52388799029993, 191.1684633231362 -0.4439051569139749 M-0.08049925790034378 230.9217966932548 C46.23502314202049 178.2098552288878, 91.66279904725877 125.47545153303236, 201.36752971325913 -1.0063670354610275 M0.3927056213898763 232.07571211147126 C53.39650054355313 170.69934881364335, 106.38532771435338 109.26033729900422, 200.84423379651767 0.23019433821549 M1.3253798208504501 244.7826688660113 C47.223187061420724 186.61258108589925, 95.49742021007727 133.7462554009248, 211.64109454437576 -0.07011650541653491 M-0.02579440722295888 244.02226553447582 C62.32525502882717 172.60803652514383, 125.89145844710241 99.32517318314878, 212.33299620274065 0.44249362499075373 M-0.8936123887611684 255.72279489741803 C48.3188108695203 198.04946981011744, 99.99330572637336 141.58172814934153, 217.9195514822669 4.143618002600612 M0.20570766683826613 255.84382993772917 C62.7110466428018 183.54459749074394, 125.0317784115627 110.93855840479004, 218.36232402865468 4.827639885748464 M-0.9883790390522702 267.9165492881286 C51.98720348605289 207.41742379013297, 104.21004726924602 148.784279485865, 216.8585684061244 18.393494518430245 M-0.3055885807279497 268.048142261409 C77.26738882786081 181.92063419392466, 151.27677585949945 95.76646100898148, 217.4726116466265 16.855455195428377 M-0.5889006169886748 281.46835489504986 C54.03136584213637 217.08520747263225, 108.3461654471115 157.6676674429354, 217.81641467915867 29.763053150893537 M-0.5646541909361222 281.13973727780973 C72.4584328818025 196.4265477622588, 144.79768868941662 112.73625929363399, 217.77578507858635 28.788547924539145 M-0.6753772200364007 292.44629657213363 C48.580825344105314 235.283906231048, 98.8266942741096 180.94353950687355, 218.64165364799817 42.73411739534798 M0.041289219434921615 292.5258170923323 C59.788236519299865 223.41317766797425, 118.83359671272707 154.45723583758547, 218.54226803299426 40.798567542583484 M-0.2708359036634594 305.6970730028673 C76.87651943621913 215.9797258945259, 156.45197812049517 128.44854529762898, 218.93150589345106 54.29014702590873 M0.6226960130521937 305.02194718416484 C71.61579207613528 223.14683681449543, 142.60684823584833 141.77200186225616, 218.2595196550871 54.842453359680476 M0.5788620317998048 315.7043135439563 C54.80622858414042 256.0423049188249, 106.79572496309784 196.37889897231528, 217.029437833141 67.36348399328864 M0.1253960604017209 316.96474978705 C80.22578854873494 222.05161540144132, 162.00339348558103 128.45144971743687, 217.3257018248106 66.11970827610475 M5.21071279204459 323.2247816666826 C76.07338843095263 244.88462907419688, 145.03984247995004 165.71936455214617, 216.78398836682445 79.26024202075718 M6.1055321837859085 322.2616372118921 C50.80259934132919 269.11339544871356, 98.31582768874924 214.10308408805452, 218.29096685157157 78.38819844895039 M15.096590167203855 323.0367304764577 C67.58873614524266 262.7700788649364, 120.52327261279603 200.7868165970451, 219.30674378734426 89.53936932625027 M16.098295312363216 322.4191372638893 C90.20006569918304 236.39910576015365, 163.79284320596636 152.07847855279874, 217.63365291883753 89.95814523711438 M27.224701665367274 323.19560201957626 C101.65414535201495 234.49942232826868, 177.18092838663748 148.88924341248273, 218.92556430371982 101.24646668286027 M27.405281565131805 322.3347451533652 C104.56073954454894 234.48030170176318, 180.22847540103487 145.90382328421381, 219.05326194730648 102.66860665543277 M38.37969857245452 322.0273517249692 C91.25371910046381 255.83346366311628, 148.47503652087553 193.07872341590817, 216.37676001587806 116.42857444833385 M37.7801981424477 322.2477828659066 C105.44544784301982 243.24116445712409, 173.56352514458334 164.65107388349057, 217.18164487371254 115.4304429776308 M48.27950249359237 323.31026866974867 C97.16570336420382 264.3768628439524, 148.58424419934366 207.79656397168063, 219.43730743219643 126.49285894745857 M47.38287475107137 322.3473814384182 C87.89640164227484 275.2963750760927, 128.25232090457956 228.52087249339624, 217.98351102265303 126.82495147694175 M59.95887530916082 324.18391587122056 C105.00487292251475 269.13425394189215, 154.30115805887877 213.47767210003585, 219.70191966198834 138.70055462642034 M59.355004040140955 322.6471930131255 C116.95347369725674 255.61201610187257, 174.74862111534944 190.54129087126114, 218.3969376620491 139.90771875984493 M69.82551353102505 321.0452063761135 C102.32570133192027 286.446968852669, 137.7712260418862 246.5959178858514, 219.91866482805654 151.78069249601018 M70.13412739473941 322.8507129318987 C123.6035908210254 259.2016170194766, 177.45685442150324 197.06653696869432, 218.07196963401515 150.88082572367924 M80.44979909605026 323.822861006156 C115.86546873377743 282.5304300566559, 148.89606050449555 244.22088249102393, 217.28417247820366 162.60253614201903 M80.7981032874497 322.19166164910786 C119.60000171922843 277.8755299241205, 160.20127685321876 231.24843969581173, 219.19970766816525 162.84567317828345 M90.42481850784303 321.9276073526387 C127.35465131226294 279.5415156860745, 162.83247894956475 238.99449390683912, 216.02660389321665 177.97093640882093 M90.69394477035881 322.92142525201484 C139.93092965940872 266.9192478616555, 190.45229556990415 208.87782211752582, 217.21602908971528 176.714596594307 M101.05244000500933 322.7435079640586 C123.96384515640543 296.4643757589814, 150.25829105279567 267.1414259953834, 216.81099033815593 190.06919866562163 M100.95880798867837 323.03244765241334 C141.1992344491578 276.1072851332038, 180.3823523270814 230.88816199672388, 217.87053307978243 187.25687971845542 M112.58187882395296 323.18334808963874 C133.99018448521028 293.415211310136, 160.51078681852567 265.80299084438684, 217.97741871424753 199.7135195772075 M111.2142298312655 323.39882207307556 C151.46307645775602 276.8590693447877, 190.9116742307113 229.07321846952712, 218.70712401442964 199.31806466755503 M123.72187519904892 320.84698124500403 C156.19509535616015 283.1602220142157, 189.40452776521795 245.49649338403918, 218.94556675586648 214.16781515920354 M123.27185580593269 321.96085613118896 C154.1851667161078 286.79318063699895, 183.76510547434327 251.68020569738803, 219.24447865146942 212.94392780879332 M131.45460686467226 322.4358234457794 C161.4661099749021 290.64513545707524, 189.91839295161697 258.6190327092035, 219.1585496973878 224.0475639272347 M133.36911267049248 321.545576193941 C165.11345045873384 284.95569373044486, 197.71332820448444 247.85124657642805, 218.5520549987143 223.94196425935775 M142.12963002620742 324.75756278781273 C167.58096294892914 296.1468893449347, 192.31153547099348 268.62341617250553, 217.17686124419592 236.32451647714882 M143.63814940376685 322.4964369587419 C162.74675029262156 298.6050304224106, 183.18382075451174 276.27053195184016, 218.71903328498624 236.51109746665864 M153.8381154760104 323.9573211262835 C173.28181980589486 302.1588301682246, 191.8206584960979 280.0583598833759, 217.0526096886469 247.55785716412532 M152.85507332154924 323.52948313233384 C173.623644241812 302.509892792805, 192.59646772950578 280.32644333290216, 217.60355207607876 250.09784088743794 M164.22649441946578 324.2959115570394 C174.7487447722789 306.7328271026225, 190.79573212130595 294.9910356571063, 220.14316373612522 260.67246158401196 M164.6285959026618 322.1366069121269 C176.95330470867623 308.7306572603311, 188.25305430503045 295.07597581986784, 219.02135410081385 261.7995554691059 M176.87069459094846 323.3810000957054 C190.38990340355454 307.238196784366, 207.76884086486024 287.2425042747263, 219.4853886210059 274.19005825243374 M174.14926890491688 323.4417096653086 C183.92310348590823 312.85819519535147, 192.61227683857888 301.6493182594345, 217.49502236700405 273.22061132885 M184.3700812248335 321.17181525790664 C196.4214764609293 311.2524109792462, 207.12618677675312 300.88648608424387, 218.88958707766392 287.23393818501575 M185.65842533612707 322.83041150906655 C192.81728424993616 313.1951153636291, 201.41421663132522 302.9354743092933, 217.7229211324618 285.10209733385784 M196.0974570554959 324.22914805926797 C199.13927688586728 318.382334322477, 203.089386420076 312.58541651315295, 216.0334403114838 296.5336644776056 M196.57317945410483 323.8250513105881 C202.48627153521954 315.6626432765696, 207.88347150639748 309.043501819369, 218.04813687600915 297.95153068153957 M206.08851552836484 322.1113028129872 C209.22015780124448 320.6162606757241, 210.30173443441933 316.3571500030295, 217.01557058017488 309.7240430578923 M207.50152531031404 322.1064872838866 C209.877701843556 320.5690279596244, 211.2481836827284 316.2205706087498, 217.33132033400025 310.78040996215844 M0.3160729881540192 318.20529474156683 C0.3160729881540192 318.20529474156683, 0.3160729881540192 318.20529474156683, 0.3160729881540192 318.20529474156683 M0.3160729881540192 318.20529474156683 C0.3160729881540192 318.20529474156683, 0.3160729881540192 318.20529474156683, 0.3160729881540192 318.20529474156683 M12.827475035251297 318.08193518571335 C7.276377546636817 315.7945898664709, 5.245930234543811 310.2987224769902, 1.4402822665184731 306.5812021552759 M12.392898783148445 318.2516699289509 C9.283074647246629 315.1536230625327, 6.738379762591897 312.7862360531655, 0.5554552934378368 307.0983845799404 M23.44198950427841 316.4982946049866 C18.48517111735925 311.40215496136864, 11.780307367362079 309.03444412047145, 2.001237914185225 295.7411021589951 M24.411571670801152 317.19905482423275 C15.865331914964283 310.07000734381484, 6.781820752757678 302.9191322215753, 0.8331432456478467 296.64335719120663 M35.882433443665775 316.7561177852915 C25.927870702650175 307.1733763180234, 17.4285975427871 300.35114011456017, 1.438495012879315 286.04834470601827 M36.92414044901756 316.99497312115295 C27.07922015535881 310.0651545431682, 19.106915539884813 302.36851312746944, -0.3218157897294134 286.08559198008925 M47.02987048608051 318.2780171985065 C37.48430071785148 310.55779136437127, 31.03810629260577 301.02184113672615, 0.26609482397580564 275.5886576265766 M49.03639871087657 317.4019563289618 C32.96310020052422 303.04546276800755, 17.698329653628218 288.74682514962075, 0.5878804788484615 276.50400398454804 M61.42587544612033 317.4917803892472 C48.4953224819457 306.59763317614977, 33.11240580033649 294.5309210574314, -0.5181599181504168 265.29783193629504 M60.650639044413396 318.0554335938373 C40.111690396682235 299.2593293366573, 16.998657238064226 278.90795906817726, 0.16684630919385768 265.23343207177044 M72.12133189771475 317.4585803151575 C48.86580483424039 295.9641526461391, 20.265159690069467 274.2148738162293, 0.6069710208757613 254.9632211507987 M73.58080654699506 317.75937572498594 C51.3087433772921 299.0587889757138, 27.89806263726131 279.59462890945196, 0.3204772091193888 253.62043385894407 M84.95468965546151 316.05932952085305 C56.26661106024557 292.7972265949869, 23.516248506799016 264.484482521105, 1.4361653754292547 243.4737412857125 M86.2057563066568 318.29764936858584 C58.08105141751918 292.51252241145716, 28.16896893810926 268.51621916158376, 0.37994993643746966 242.89828571325637 M99.28312645373562 319.62044402195875 C58.40465687196467 284.6341080527904, 21.513939076510113 253.59403758589127, -0.2124616201148939 233.0698708566614 M96.57541508121112 317.6847808918244 C66.30655214044303 289.2972681303229, 34.64731594718975 262.81703233713165, -0.7727775010393572 234.0619827518948 M108.48725752691206 315.81990233409954 C69.85181641394269 282.7243328161231, 26.55461801411903 247.76288335436635, 1.252642768618287 221.5936508792705 M109.29049087847051 316.6970154118891 C72.56491766277892 285.6643244337847, 33.198431481984414 251.36833224037372, -0.5799658454986201 221.74323884204694 M120.47584518958861 318.593304501891 C88.32820824103554 288.2317812509807, 55.36513668195269 261.64129092709175, -1.0535312239961883 210.73868486916479 M122.38218253647024 317.40337582495795 C73.18387193615567 276.99724699060016, 24.1568184431235 233.57666734347742, -0.6830945891278049 212.08548660090025 M134.41696051569474 317.7596359829771 C103.06255389951585 287.62675450157894, 69.60766398988467 261.48811261965005, 1.2574441364166802 202.30013884196921 M134.41834140257728 318.4164266902375 C79.94400132966487 273.34017007009993, 26.60216709045902 226.6244505034847, -0.7978619741144115 200.61887739564224 M145.01624081982823 319.20762182197336 C104.57698000300093 281.00541269165467, 63.63102515215148 245.97117393272015, -0.4025659157680934 190.42474131330874 M147.15672881482692 318.70362840390567 C90.22397695953461 269.5440813555328, 33.86353303689857 220.1961007285697, -0.5891849926459258 190.13528134346035 M159.14403038800333 318.43572421532724 C123.94806618238054 287.9443499385424, 89.14576470184738 256.3787160683242, 0.11858845411784552 181.64528956069938 M158.61680839533688 316.9487762126089 C110.80638754515046 275.89664134398095, 63.25107468464775 235.2870868664681, 0.3853992101827597 180.49920357017115 M169.08058868347632 317.85353560528205 C109.23423998515521 263.08428441768183, 48.40735242483313 212.20711442163494, -0.3416421903135224 168.3767012973698 M170.16946687532422 317.54741669502573 C108.46134466204278 264.68881757006994, 47.84515693888917 210.63281080038973, -0.7582812519551694 168.92073839343126 M182.9326128762828 318.85663407551823 C138.3807819298467 281.3314887853244, 92.41961663332081 243.8176832025088, 0.8034265640750182 158.2687406698434 M182.9355841700645 318.15947781113107 C131.40846317272727 274.19760014665485, 80.0819134911822 229.46405608666748, 0.5577147731836778 158.79379455395215 M196.11946194094446 316.95054416813355 C132.5251262641248 264.24448577663577, 68.43206107053975 209.4937036302223, 0.9994728392076253 149.46261347847664 M195.3274999006543 318.0191293214375 C152.08947418394092 281.2297575836903, 110.26081897871875 244.26920857483995, -0.8813071603901176 148.84911849581687 M206.72311938074338 318.8175689147619 C140.53895909811735 261.9092956184765, 75.26940505913879 201.5768478335873, -0.6122145205810461 138.45943980274404 M207.68049469970563 318.0784145420666 C126.78343577280722 246.04138762584327, 44.96791286755138 175.4241117945915, 0.2014568756207284 136.91602985859987 M214.46581684223128 314.1300897308253 C152.84578378775515 261.35994021057417, 90.84890646598383 207.09577939587155, -0.6308713867824425 126.59769887871536 M215.61190078646746 315.04757475583875 C157.2677385386426 266.3525442306152, 100.98565241321391 217.77764391837542, 0.015317413878792041 127.4951547971687 M214.6282750591317 304.33124041465163 C135.5182153232839 237.70933814293775, 59.193543501012236 168.542135009559, -0.9842374147581052 116.60043874838455 M215.36116360141168 303.125931210755 C149.2680754483096 247.1565838104511, 82.5127232619701 190.15106083485523, 0.2874326418128105 116.05874348306489 M214.87346073166873 292.8672261326363 C164.31031580418463 248.8814490206572, 112.27238600955371 202.54658873900215, 0.3025314311645402 106.90070536363787 M215.90849438826902 293.2375294851889 C166.1468789371832 251.68974505898606, 117.37949955598145 209.3476205877753, -1.0806476166896402 105.93875279448449 M216.84018498000788 282.30745399622134 C142.0856445733817 218.87456815072517, 69.44529421810762 155.54839435891682, 0.4833732643850998 95.55218193167114 M214.95273516508857 282.48183802559385 C147.50446060887575 224.79267625971056, 80.6412054921759 166.76485050297364, 0.007158182483698483 95.15890746912989 M215.17334200708683 272.6540916050025 C160.96959695907245 227.5979692567025, 108.1915453269987 179.1843203143776, 0.9974817363492529 83.82255959654366 M214.8685993215096 271.84572410587833 C160.49041846146932 224.90252788046328, 104.87037829038243 176.62086828401033, 0.3169721296456438 84.3260544066226 M215.52754369926583 261.51758226059775 C147.26918919573222 200.30544099351863, 81.00822984238394 143.02880070512177, -0.3034616636958639 74.27704750158951 M215.22985650622036 261.56828676285346 C147.87140388987964 202.83163345506523, 81.12521701357612 143.94780296095485, -0.04739976697292131 74.4160642147513 M216.18310950381053 250.37767692199125 C159.6589738147726 198.5816743715155, 99.28606996634952 148.08127941555236, -0.23983442598463678 62.26386254329307 M215.9321854799631 251.04442578265213 C146.82838555520996 191.75617831160517, 79.74395322594849 132.74295602069517, 0.9572392221201796 64.0507302108988 M213.92153943048663 238.70582698566747 C164.91111427632907 197.2977335659022, 115.70327633153862 157.02557280017172, 1.1630005217485628 51.92864005563873 M215.77232822223004 240.24664923265703 C165.117390366422 193.72643594077732, 113.95811797756895 150.36090315862006, 0.5784560451671383 53.09296299369791 M215.96867605155967 230.22112628561075 C145.69426041312875 166.09980528666063, 75.94127071087141 105.70756206762586, 0.4851208142693602 41.238087810110855 M215.57606093126333 229.63028646150104 C132.15024093536533 154.09616183674947, 47.61030206625977 80.81836575780676, 0.46252686916014185 42.55200344303145 M215.53965850179532 217.91396509330553 C147.90625233090847 162.286375731593, 82.73065318381558 104.86409724789176, -0.1779773511566214 31.269112015693818 M215.25979702405516 218.522109099067 C165.77781017104405 176.85940611367184, 116.67037194759403 134.4233817110624, 0.682856079841376 31.45545172003222 M215.91482047845918 208.50107611773618 C144.54069713334505 146.66229957495992, 69.78942169098093 82.82610928030046, 0.5286787852362462 20.332023318872 M215.44196613634773 208.05872805648775 C151.30718842796455 152.5065232411578, 88.33978903580748 97.94851092259393, -0.165236718296968 21.304256267083044 M215.08419624131687 198.349636505387 C160.7470467940687 150.7489311088171, 108.40091731738126 103.00617347393131, -0.003219454286413334 10.226478803629766 M214.5046171226332 198.05862252614597 C163.54217758704337 151.8433121788282, 109.89884939122969 106.25742425792045, -0.3199537020127047 9.911558807816725 M214.65749861263404 185.79957784024242 C149.23738551194367 128.29209281479618, 83.7927024773792 72.58736117877798, 0.5647158150410249 0.3646879914514986 M214.7545730561538 186.92735298167455 C164.6346693351491 141.91091471928345, 114.18396037048373 98.79445961041145, 0.6919921706863535 0.4074593471160797 M213.5559329959098 177.45871162633279 C164.29772019628842 136.29460124358008, 114.7725816478073 92.48206151375436, 12.311779779966134 -1.5901656965143576 M214.9296868721591 176.10576805607457 C159.54111915493667 126.00400321137832, 102.5585111393043 77.06124476944865, 12.731157039902449 -0.5027137106616213 M214.08627566384433 167.05475017800853 C160.20852283730719 117.64714157929593, 105.62404270704798 68.39509269972324, 22.567094655428967 -1.782040018211294 M214.85804328663085 165.44416250649545 C165.23537155512253 123.3665701719714, 115.51883564516781 78.95080353174048, 24.922173353239334 -0.4267684138540576 M215.5314441798814 153.62440808493625 C152.71055619117536 102.50813720648485, 86.89668162238719 47.832512252294606, 36.2597720648919 0.026870074488617474 M215.62111467845293 154.5877262309005 C157.11913484257934 105.58531053989367, 100.35450879185301 55.075859506227005, 36.58941953039614 0.06315263006507751 M214.15644507746734 143.35251263542676 C173.15909664495868 111.22236168219686, 131.35759841056662 71.40266081336586, 47.54786638049524 0.17249637576241794 M215.45077763973183 145.20984970491742 C176.6215685261815 111.28373380208308, 136.32078231525398 76.80967705383871, 48.764397081658394 0.4312042224097222 M217.24589473658537 133.88986660446392 C163.95641601638545 89.30121591277752, 114.85333954065966 46.73819220206089, 60.54656865290327 -1.4754984046472854 M215.17355636146831 134.91904133012923 C155.5127503168419 80.2507695853898, 92.20817548938118 27.299041719846453, 60.542773050160385 0.7680815937641017 M216.46820805740805 124.8959275196934 C181.0337451587129 93.47170868647716, 146.57043390209589 61.479337487059645, 72.60084228933185 0.06955065207504418 M216.32161051926465 124.48616379980686 C184.6025587947507 93.55603874090754, 150.1032963244811 65.4562281339478, 72.84066917345255 0.7530740425171771 M215.5524607005358 111.32509542072046 C164.53765440923326 69.0075015380917, 110.0752714073046 23.513118047806643, 85.40243887764501 1.526890128766638 M215.8173358405769 113.11298034528124 C172.03150573839173 73.61048277606697, 125.21222305131583 35.75711849583192, 86.02294238892483 -0.14811688297476167 M213.99556191544082 100.73367158590769 C173.77814468094803 63.37824610962031, 132.13073596302837 29.27038729519974, 97.9228182273333 -1.5831839607660996 M216.54385416115667 103.34866453601931 C175.2422014371909 67.12129787316402, 133.6919152422291 31.283519800097295, 98.31974650419997 0.5416686704749836 M213.63125193649824 93.5965095308801 C186.4195846194486 67.35301945213644, 158.5245744602978 43.431374266006216, 111.19723891232614 -0.43387365887919316 M215.75031098881658 92.69602398920858 C192.07935568069934 71.86186578369899, 168.64765696675926 51.54751488359424, 109.1778391166449 -0.8814109879271115 M214.56670849808296 79.49002527126262 C192.25574306485925 63.02909441785133, 171.62412797341534 42.75211041787841, 120.54852574722133 -0.8786414209571305 M215.111633081369 81.54458507203648 C186.87445338924374 55.9005970458923, 157.95185769309012 30.343188527263116, 121.85888781429492 -0.39130171200303465 M214.93254683457008 69.3421973226803 C189.9297872026741 46.40553233844311, 159.55541406923544 23.559951126894227, 132.31823146639385 -1.8254462313749258 M214.85352844662657 71.04559290169055 C191.87620487962977 50.36920334527547, 167.0294685350474 28.360001031710297, 134.5456318549625 -0.9812896345653002 M214.63281968033448 59.68256670075816 C191.83684145898604 41.62151049866786, 171.8629528763581 23.251640655700996, 144.37134630421875 1.6693154254924565 M215.87748634240165 60.98701134535831 C198.70286862873968 44.93762679970894, 182.83161354742427 31.227916411015087, 145.22159174646018 -0.13294213842637248 M215.09501726975128 48.89223692112118 C199.44121279322144 36.02087269543439, 184.59288014533416 22.30428040655622, 158.60100757529375 -0.6931314057394928 M215.88577727650687 49.668523020227255 C200.43620182126853 37.053227705350835, 184.76848451470147 23.303048851272628, 158.5507788268232 0.7149511725917392 M215.0200673371954 37.45387399939433 C197.34569537067154 25.786249899935523, 180.35053896319906 10.409310652692113, 169.6596613535483 -0.8281762674268123 M215.50645300675464 37.77652929348484 C203.56234835452517 27.472608065994688, 190.1489576540273 17.365192928432364, 170.98385694341852 -0.5828576423045035 M214.13233511704186 28.201706451202668 C208.54472246704742 20.52011468087437, 197.7178647603369 14.320638851246978, 181.23731995358023 -0.08146911495396125 M214.4183465409575 28.25915028231863 C207.35754630002845 20.81002855497436, 198.5548621123871 13.946981433461982, 183.41139993428143 -1.0667206869370602 M216.92962334366567 18.57152529217113 C209.29138111798184 14.396894993775685, 202.73980982480967 5.91084699310467, 194.7927236097645 0.3968435673040176 M215.4760721369279 18.20122485391606 C209.58902293954512 13.933798811632792, 205.2595306757829 8.700557916878001, 194.27005330722443 0.5786696558815265 M215.92165422194574 7.963882232950104 C212.14488769042686 5.995242508391405, 211.6326642236488 3.2361317299884576, 206.47952459261188 0.15551160582315915 M215.04267340001587 6.780626856097055 C211.80801142009648 4.0388916474679695, 209.48602479991823 1.341698140421625, 206.679831162583 0.15395068292480696" style="stroke: rgb(21, 170, 191); stroke-width: 1; fill: none;"></path><path d="M-0.4193045420031456 -1.0342441697124518 C80.51185980070012 1.913027646968278, 161.53483852337118 0.06558177045934421, 213.89430565032566 -0.8316574731984056 M-0.19886689619238943 -0.5644443012004263 C55.83168155632347 -0.6107368005662233, 109.25902091296625 0.14141040559870086, 212.39588873710946 -0.2580131580164356 M212.15508826696868 -1.3573579564700138 C213.90076801212882 68.78591424840367, 212.89523551622008 137.49951545839335, 211.2894130089077 317.5885142749958 M211.77433873405883 -0.48318365922499557 C213.28161539453092 109.61511019210567, 213.91037668833738 219.19208178122264, 212.30901914972333 317.5820572637883 M213.7444939372543 318.6033237625351 C154.79364769979009 319.1638294549556, 94.95848330683552 317.5261549112357, 1.4469648592740862 317.4425913889933 M212.0473416138138 317.9234268655339 C153.34888664106268 318.2807437983088, 95.32841071021573 317.44351517444306, 0.013331293203776351 317.64625996231445 M0.06709768383711533 318.3152489728621 C1.8088605092696843 230.59005897312656, 1.8862701301600224 144.50745336283526, -1.0557973907604177 -1.12424830509904 M-0.11084589056692162 317.4050964665439 C0.7514766397096063 206.45088503132826, 0.23590759469818745 96.26109622280138, 0.4144591230635862 0.04358609326793551" style="stroke: rgb(11, 114, 133); stroke-width: 2; fill: none;"></path></g></svg>