<svg version="1.1" xmlns="http://www.w3.org/2000/svg" viewBox="0 0 232.27921195652175 337.9305366847826">
  <defs>
    <style>
      @font-face {
        font-family: "Virgil";
        src: url("https://excalidraw.com/FG_Virgil.ttf");
      }
      @font-face {
        font-family: "Cascadia";
        src: url("https://excalidraw.com/Cascadia.ttf");
      }
    </style>
  </defs>
  <rect x="0" y="0" width="232.27921195652175" height="337.9305366847826" fill="#f1f3f5"></rect><g transform="translate(131.68393342391425 104.14062499999955)"><path d="M0 0 C0 0, 0 0, 0 0 M0 0 C0 0, 0 0, 0 0" style="stroke: rgb(134, 142, 150); stroke-width: 0.5; fill: none;"></path><path d="M0 0 C0 0, 0 0, 0 0 M0 0 C0 0, 0 0, 0 0 M0.0016655034849708157 0.025274157774823773 C-0.0022490544372934843 0.12718268348265044, -0.0030996439732218126 0.2003984118781949, -0.022850291656862504 0.26293284510056425 M-0.008630931224223998 -0.0042857439055552105 C-0.011058279188036911 0.06713512057225271, 0.008104537209877681 0.12311565570762144, 0.009861814044246135 0.2914939361255371 M0 0.2802309782609882 C0 0.2802309782609882, 0 0.2802309782609882, 0 0.2802309782609882 M0 0.2802309782609882 C0 0.2802309782609882, 0 0.2802309782609882, 0 0.2802309782609882 M0.015097761607536626 0.2955994701354925 C0.027459609335785305 0.1964658752094733, -0.022433058340153054 0.11272831308978457, -0.009368271754366393 0.02090686256254759 M0.013755469963940382 0.29124171604184074 C0.014916142442778661 0.16276425309240958, -0.0016251182592981902 0.05026212543193998, 0.013994381043122572 -0.0020288633684536327" style="stroke: rgb(11, 114, 133); stroke-width: 1; fill: none;"></path></g><g transform="translate(10 10)"><path d="M-0.35592855931190653 1.021451259305456 C71.66733336757258 2.3515281648487845, 140.42250025095097 0.16609765817925815, 210.66137630798764 -1.3582019016337148 M-0.2611722229922671 -0.19090173092225377 C66.63309451780027 -0.8753456676724298, 132.80255154837084 0.2547142610487215, 213.06863449840014 0.6948249439603861 M213.5480245088786 -0.23680312802532688 C212.38892687155158 123.0993435346295, 210.732649798333 245.61056617467065, 211.41081156582112 316.8279527700807 M212.06405916243054 -0.5339437926743577 C213.77483068626094 91.01535364958953, 213.46730355065023 181.66965506220876, 212.8446346480522 317.8360643802988 M212.13472061865102 319.43876576662575 C131.51274359137628 318.6297932445135, 48.28412692655205 320.35158027711685, -0.18511552512655557 318.0102399312529 M212.36493370688981 318.60417596319434 C165.20414272891594 316.8802823320538, 117.7324750577085 316.31491152838476, -0.09125207849370885 317.672559345397 M0.7715285935497929 319.1868722366238 C0.701336961984616 248.91732813638683, 0.30534307477770484 181.9305633486642, 1.0495657218767556 1.3737188840717733 M0.552760746036491 318.59571530653415 C-2.1624040152837893 241.28847694388472, -2.2160694670555787 165.67941328201002, -0.10185294132630793 0.27426559988158294" style="stroke: rgb(11, 114, 133); stroke-width: 2; fill: none;"></path></g><g transform="translate(25.123980978262352 20.56810461956502)"><path d="M29.920178228989244 -1.076708460226655 L56.4599924860928 35.79050270281732 L31.35596769489348 68.10630808357638 L0.2084058467298746 33.95862749777734" style="stroke: none; stroke-width: 0; fill: rgb(18, 184, 134);"></path><path d="M31.161390697583556 1.4903630558401346 C38.18011394374103 8.249784513704451, 42.77792899446622 15.263735942870351, 56.709799706045146 34.23481702245772 M29.78294461686164 0.5196005282923579 C36.59351817165881 8.845181069736883, 44.733529567986864 17.479944817749367, 59.04409246709531 34.88068567495793 M57.91742461830711 35.49695681966841 C50.59133888248006 41.69633483843679, 42.073367472750434 49.61866555722864, 28.43251017294824 65.88826626498741 M57.49499421384519 34.358903038315475 C48.61751450983088 45.2815925417113, 38.66594695853954 57.61002696134135, 29.865693327970803 67.072342359056 M31.714857375249267 68.07006853778404 C20.653551047271733 58.59953395626394, 14.664471371634548 48.90101215171843, 0.09062263928353786 32.445420855656266 M30.76592826563865 66.31301852368307 C23.193699343785955 58.111864333239836, 15.185687323756827 50.30965017914933, -0.29332039039582014 33.13143520336598 M1.7860710378736258 33.435069197788835 C5.568172648679467 24.177991582732645, 14.200420505497608 18.268418335262684, 31.95294920168817 -1.1890853103250265 M0.9456520350649953 33.56938462238759 C10.92579915640876 20.23026614775881, 23.653944570440803 7.565300708357245, 30.38991003949195 -0.6524836840108037" style="stroke: rgb(11, 114, 133); stroke-width: 2; fill: none;"></path></g><g transform="translate(154.00475543478376 250.00297214673856)"><path d="M28.923291539773345 -1.7940836008638144 L60.04457878977394 35.35596769489348 L31.91660020314157 66.39811372716468 L-0.041372502222657204 32.90794521011412" style="stroke: none; stroke-width: 0; fill: rgb(18, 184, 134);"></path><path d="M31.490363055840135 1.3150684591382742 C36.268710930695015 6.69010885363646, 41.427557094177615 14.339546120783465, 58.488893109414335 32.85249105654657 M30.519600528292358 -0.36289879959076643 C39.72897935860214 12.19615096471699, 49.432406726468 23.277031275289673, 59.13476176191455 33.578215894289315 M59.75103290662503 33.60264221392572 C49.04255896307847 42.16984895369001, 40.02154207966959 52.08140374381586, 29.698558384552598 67.30148861889285 M58.61297912527209 34.6085625262931 C51.34151477746752 42.16343148893296, 45.487833351172746 48.999358516009806, 30.882634478621185 65.83862540364754 M31.88036065734923 65.07899878506106 C19.294409919095404 54.747115044055775, 6.429387236510582 41.44398864341837, -1.5545791443437338 32.91012338362634 M30.12331064324826 66.5177681171943 C22.915538158055142 58.75604911282565, 16.167319332036868 51.42882489078934, -0.8685647966340184 33.50870167929679 M-0.5649308022111654 32.22524646483362 C9.301924406457692 21.03169008763507, 22.53822087487206 11.621461465116589, 28.810914689674973 1.6629853006452322 M-0.430615377612412 33.76510727126151 C11.171079007107764 21.17721846560016, 23.478359747808426 7.030493112560357, 29.347516315989196 -0.039910885505378246" style="stroke: rgb(11, 114, 133); stroke-width: 2; fill: none;"></path></g><g transform="translate(60.94259510869722 112.05078125)"><path d="M73.21297627506065 4.577435953747269 C81.53666305100997 7.255663241304367, 90.55026210236787 14.44372344680417, 95.90350305608199 21.379252601559067 C101.25674400979611 28.314781756313963, 104.52447959550898 37.237149002263834, 105.33242199734535 46.19061088227665 C106.14036439918172 55.14407276228947, 104.51444386306048 66.81568698969598, 100.75115746710017 75.10002388163596 C96.98787107113986 83.38436077357595, 90.32693661647048 91.00497002251844, 82.75270362158346 95.89663223391656 C75.17847062669645 100.78829444531469, 64.4904802797252 104.17077536465524, 55.30575949777811 104.44999715002474 C46.12103871583103 104.72921893539424, 35.453836855093556 101.67155800806444, 27.644378929900938 97.57196294613354 C19.834921004708324 93.47236788420264, 12.896663251414484 87.40512788980286, 8.44901194662242 79.8524267784394 C4.001360641830356 72.29972566707593, 1.0879383215123977 61.46102902323296, 0.9584711011485538 52.255756277952734 C0.8290038807847099 43.05048353267251, 2.976515023557096 32.24300427706966, 7.672208624439357 24.62079030675804 C12.367902225321618 16.998576336446423, 20.916870170620363 10.769831491390985, 29.132632706442116 6.522472456083037 C37.34839524226387 2.2751134207750896, 49.24142632560537 -0.5256546649959806, 56.96678383936987 -0.863363905089642 C64.69214135313437 -1.2010731451833034, 71.8426913801477 3.169541874538262, 75.48477778902912 4.496217015521069 C79.12686419791055 5.822892156503875, 79.26957143938759 6.375141669783754, 78.81930229265845 7.096686940807196 M34.70145857796969 2.7774638182876785 C42.672900759785804 -0.38228183537280813, 55.22007870356402 0.08690207145070628, 64.10420307714256 1.9059640444477353 C72.9883274507211 3.7250260174447645, 81.22322223461529 7.687953580716037, 88.00620481944092 13.691835656269852 C94.78918740426656 19.695717731823667, 102.2354372120294 29.36152224407503, 104.80209858609632 37.92925649777062 C107.36875996016325 46.496990751466214, 106.10385945925904 56.51132055755067, 103.40617306384246 65.09824117844342 C100.70848666842588 73.68516179933616, 95.0562902979512 83.14457647900127, 88.6159802135968 89.45078022312711 C82.1756701292424 95.75698396725295, 73.25759497746449 100.79473073936842, 64.76431255771614 102.93546364319846 C56.27103013796778 105.0761965470285, 46.59409966280089 105.32335104845943, 37.65628569510663 102.29517764610733 C28.71847172741237 99.26700424375524, 17.43207018217761 91.47111905261849, 11.137428751550559 84.76642322908592 C4.842787320923507 78.06172740555334, 0.8912085564745145 70.74356526108656, -0.11156288865567632 62.0670027049119 C-1.114334333785867 53.390440148737234, 1.8134890747808576 41.05212504259389, 5.120800080769413 32.707047892037934 C8.42811108675797 24.361970741481976, 14.529306376439106 16.955398488216687, 19.73230314727566 11.996539801576148 C24.93529991811221 7.037681114935609, 33.691799574417594 4.371419397692706, 36.338780705788736 2.9538957721946986 C38.98576183715988 1.536372146696691, 35.584182474525804 2.7857702723257476, 35.61418993550252 3.4913980485881027" style="stroke: none; stroke-width: 0; fill: rgb(18, 184, 134);"></path><path d="M47.89948588344482 0.29567840133466916 C56.485524468258625 -0.9505688379249062, 67.76986958988054 1.7943995443258856, 76.032055912536 5.735855512943054 C84.29424223519145 9.677311481560222, 92.37795942572257 16.4662749535737, 97.4726038193775 23.944414213037682 C102.56724821303243 31.422553472501665, 106.23508881072813 41.41640681945776, 106.59992227446557 50.60469106972695 C106.96475573820301 59.79297531999613, 104.11712966327401 71.05953622738589, 99.66160460180211 79.0741197146528 C95.20607954033021 87.0887032019197, 87.77373342291415 94.51793231942662, 79.86677190563418 98.69219199332835 C71.95981038835421 102.86645166723008, 61.48765919189924 104.3910853056337, 52.21983549812229 104.11967775806322 C42.95201180434535 103.84827021049274, 32.09907004716909 101.76367137134866, 24.25982974297248 97.06374670790547 C16.42058943877587 92.36382204446227, 9.22530962477196 84.23497013767512, 5.184393672942633 75.92012977740403 C1.1434777211133058 67.60528941713294, -0.6954402119172324 56.36748693965616, 0.014334031996519059 47.17470454627893 C0.7241082759102705 37.9819221529017, 4.1423974404345705 27.97772415370979, 9.443039136425142 20.763435417140673 C14.743680832415713 13.549146680571557, 23.313959239994777 7.378957607558771, 31.81818420793995 3.8889721268642248 C40.32240917588513 0.39898664616967805, 54.07421864698977 -0.07096801146118518, 60.46838894409618 -0.17647746702660783 C66.86255924120259 -0.28198692259203045, 70.33043596581904 2.1877438549796038, 70.18320599057841 3.255915393471689 M50.7709696352466 1.3640084180489538 C59.14719587969364 0.3072131008119878, 70.10966991733858 3.4999692930958473, 78.12179016382875 7.8374574487885695 C86.13391041031892 12.174945604481291, 93.94756202349477 19.960778486531414, 98.84369111418762 27.38893735220529 C103.73982020488047 34.81709621787917, 107.52471209300461 43.51509955239027, 107.49856470798588 52.40641064283182 C107.47241732296715 61.29772173327338, 103.80720502934888 72.96505636692636, 98.68680680407519 80.73680389485463 C93.5664085788015 88.5085514227829, 85.24539400578335 95.22610803693021, 76.77617535634371 99.03689581040146 C68.30695670690407 102.84768358387271, 57.13118542772915 104.26910423448831, 47.87149490743734 103.60153053568209 C38.611804387145526 102.93395683687586, 28.273642177867266 100.08289821204998, 21.218032234592833 95.0314536175641 C14.1624222913184 89.98000902307821, 8.913957992281967 81.62488981340636, 5.537835247790738 73.2928629687668 C2.1617125032995106 64.96083612412724, 0.019463458329948224 54.017743581192995, 0.961295767645467 45.03929254972679 C1.9031280769609857 36.06084151826058, 5.631090898894013 26.61088112805686, 11.188829103683851 19.42215677996954 C16.74656730847369 12.233432431882221, 27.799949486625874 5.002606140655322, 34.30772499638449 1.906946461202864 C40.81550050614311 -1.1887132182495939, 47.31400533266815 0.7619406158178718, 50.23548216223557 0.8481987032547949 C53.15695899180299 0.9344567906917179, 51.74977534845169 1.9102920054914683, 51.83658597378901 2.4244949858244027" style="stroke: rgb(11, 114, 133); stroke-width: 2; fill: none;"></path></g></svg>