<svg version="1.1" xmlns="http://www.w3.org/2000/svg" viewBox="0 0 232.27921195652175 337.9305366847826">
  <defs>
    <style>
      @font-face {
        font-family: "Virgil";
        src: url("https://excalidraw.com/FG_Virgil.ttf");
      }
      @font-face {
        font-family: "Cascadia";
        src: url("https://excalidraw.com/Cascadia.ttf");
      }
    </style>
  </defs>
  <g transform="translate(131.68393342391414 104.14062499999977)"><path d="M0 0 C0 0, 0 0, 0 0 M0 0 C0 0, 0 0, 0 0" style="stroke: rgb(76, 110, 245); stroke-width: 0.5; fill: none;"></path><path d="M0 0 C0 0, 0 0, 0 0 M0 0 C0 0, 0 0, 0 0 M-0.0033893278455464637 -0.007399323608497831 C0.011159027377689179 0.05319628766936266, -0.01605738659680086 0.1460963004162083, 0.003730031648562504 0.25616205551051724 M-0.0037518701660519647 0.006756464582279215 C0.008765075136385974 0.09844067150725705, 0.006520634209113576 0.18506394239138035, 0.01292368904812968 0.2694212159168505 M0 0.2802309782609882 C0 0.2802309782609882, 0 0.2802309782609882, 0 0.2802309782609882 M0 0.2802309782609882 C0 0.2802309782609882, 0 0.2802309782609882, 0 0.2802309782609882 M-0.009573449996150982 0.2611093664264245 C0.0030484996020646075 0.1860284638014883, -0.0037550549869885632 0.03521491588128362, 0.026546978631666607 0.008988137332107578 M0.0012527189103470407 0.27638039090177774 C0.004743292702189327 0.19460428100865432, -0.012629664695697979 0.07893426561645733, 0.0066137802688295 -0.01336617607510969" style="stroke: rgb(11, 114, 133); stroke-width: 1; fill: none;"></path></g><g transform="translate(10 10)"><path d="M0.37496079229975604 -0.3463344677663416 L212.95476080146526 -0.5479099299109863 L212.2365278863384 317.104597760256 L0.2325549775905737 317.21005195665055" style="stroke: none; stroke-width: 0; fill: rgb(255, 255, 255);"></path><path d="M0.3465641936039983 0.7768685618645499 C58.01596018366146 1.276617214474212, 114.54948117804682 0.1868888232700548, 213.19581029396346 -1.120287824144876 M0.2410733030091981 -0.7873402908233014 C83.91542873264747 -0.8805225628431067, 169.2103628238334 -1.6698736108031333, 212.0043805707216 0.09790750266853555 M212.20389878793705 -0.23261339933486636 C211.46055015395925 82.10708192998945, 211.67749086764323 163.45229906408244, 212.3035095416303 317.51575519396675 M212.51849876924965 0.6645337172313683 C211.4489638567864 92.03989225312723, 212.49515281363483 184.64692678987882, 211.90834306760797 317.43625792726897 M211.34903118181245 317.7662102409046 C142.04824979376616 316.81371536384916, 71.15841969335521 315.3217664456247, 0.9297739450471892 319.56495673700624 M212.61940091628765 318.7959459770781 C150.43479672344102 317.5603290043138, 89.89895363720998 317.55380072649024, -0.2583959772615263 318.0667271767964 M0.004882458070683751 317.26679004627977 C-1.937905587957494 201.41744918357682, -0.45377490954532496 83.61305659337656, -1.113957542161303 -0.5706498136537842 M0.5018160560826732 318.5567921082979 C-0.8045218745392264 231.02656655215668, -0.5586995048679574 145.7956214496673, 0.1544412816574266 0.32367823822270203" style="stroke: rgb(11, 114, 133); stroke-width: 2; fill: none;"></path></g><g transform="translate(25.12398097826201 20.568104619565077)"><path d="M30.197425140067935 1.9089362192898989 L56.514317429665084 34.10985388047993 L28.75666464678943 65.14887305308622 L1.8620490562170744 32.969992654398084" style="stroke: none; stroke-width: 0; fill: rgb(76, 110, 245);"></path><path d="M28.802073376253247 -1.116054879501462 C34.54985513944629 8.844608116277897, 43.00927816911569 15.652292285801316, 59.35351685718035 33.10541946999729 M30.86821625288576 -0.33325695153325796 C40.391887703541194 13.174646341588675, 51.31942367038408 25.45605218258905, 58.43622413281685 34.46832171920687 M57.450718681368585 35.13467486016452 C48.951859451497086 43.68219753207927, 38.6682203505341 54.77227594292735, 31.757027642801404 67.67105354700726 M58.57721748952156 34.35864321235567 C52.64235501550641 40.796455894542234, 47.26971214964193 47.65086550304889, 30.69176737125963 66.49248595402133 M29.513699071481824 67.95758737955731 C24.03600556383116 60.27491850014659, 15.065805124847422 51.69358117164322, 1.475590543821454 34.23114080540836 M29.066624558530748 65.22377271816623 C18.558289248278832 53.99797934883814, 8.210681044279134 42.795062284363766, -0.5758817130699754 33.61382839921862 M-1.5696942042559385 35.29106636159122 C7.190536012742668 27.786725414637477, 13.703011552672834 21.501564427744597, 28.496645586565137 -0.42089091427624226 M0.001833445392549038 34.50224254373461 C7.370388471130282 24.894830067176372, 14.939854014273733 15.52097465051338, 29.79701695498079 -0.1945661222562194" style="stroke: rgb(11, 114, 133); stroke-width: 2; fill: none;"></path></g><g transform="translate(154.00475543478365 250.25772758152107)"><path d="M29.933529509231448 -0.5970598887652159 L57.576185501221175 35.54353596456349 L30.0245454441756 67.02284368087095 L0.29822285287082195 33.515330927446485" style="stroke: none; stroke-width: 0; fill: rgb(76, 110, 245);"></path><path d="M29.740745084360242 1.50596715323627 C39.336756612377954 11.498748809012582, 52.75335980603241 27.22831440391671, 59.22963134482836 33.02785272710025 M29.40037480648607 -0.507716110907495 C40.65549803949732 13.726455610021304, 51.65104596769115 24.581589118353378, 57.726315349381025 34.46143648866564 M59.07228604987597 33.813120080158114 C48.87322618067957 43.683996498301546, 40.331411637113945 52.68784422219379, 29.308835642412305 66.99500276480359 M59.13935765628105 33.42663285974413 C50.05502405724778 44.685250426633516, 39.41107108760954 54.17716541894693, 30.576964712701738 66.85335470602405 M28.5052958894521 67.32758762274426 C16.628888174803542 54.38399087223816, 5.998012627387034 42.42556260362962, 1.5503820944577456 32.494081569835544 M29.66576538141817 66.35043431684863 C21.891060307809518 57.36820029080637, 12.730771918968664 47.033683025865145, -0.8248873287811875 33.86375240329653 M-1.767027897760272 33.79634721390903 C8.202870818469673 27.938948840741066, 13.14042767105624 17.613241496216503, 30.32061697728932 0.5021107327193022 M0.8617908423766494 33.50575236324221 C11.164351437333973 22.034794129151848, 21.766172229405495 8.185014923941342, 30.088796175085008 0.2801675284281373" style="stroke: rgb(11, 114, 133); stroke-width: 2; fill: none;"></path></g><g transform="translate(61.218580163044976 112.05078124999989)"><path d="M62.880025442946256 0.12389299607266224 C71.32685593147167 1.0970005421218296, 81.06098818869764 7.160085440348438, 87.71852810541682 13.125149526007817 C94.37606802213601 19.090213611667195, 99.908084922817 27.338827540546838, 102.82526494326137 35.91427751002894 C105.74244496370575 44.48972747951104, 107.39057824725414 55.647607279373794, 105.22160822808307 64.57784934290044 C103.052638208912 73.50809140642707, 96.48720541442617 83.01926196941491, 89.81144482823493 89.49572989118879 C83.13568424204368 95.97219781296266, 73.95353516202209 101.29337625278276, 65.16704471093556 103.43665687354367 C56.38055425984902 105.57993749430457, 45.570877972006954 105.20948804792813, 37.092502121715725 102.35541361575423 C28.6141262714245 99.50133918358033, 20.351479007403395 93.00691749828992, 14.296789609188203 86.31221028050027 C8.24210021097301 79.61750306271061, 2.5641304147719355 70.87102032637426, 0.7643657324245723 62.18717030901629 C-1.0353989499227911 53.50332029165831, 0.25841978046834546 42.7972090290774, 3.4982015151040216 34.209110176352425 C6.737983249739697 25.62101132362745, 12.9183228667491 16.136356976281704, 20.20305614023863 10.658577192666435 C27.48778941372816 5.180797409051166, 39.17896147219603 2.6919688881501473, 47.20660115604119 1.3424314746608133 C55.23424083988635 -0.007105938828521063, 63.66100054281526 1.8984980809146896, 68.3688942433096 2.5613527117304287 C73.07678794380394 3.2242073425461677, 75.47148689146485 4.449130341296932, 75.4539633590072 5.319559259555248 M73.99307027724795 3.4434379823682164 C82.35256309735614 5.966246766529961, 90.85146624548415 14.031295508742797, 96.26170983544077 21.653342795667193 C101.67195342539739 29.27539008259159, 105.60886227420568 40.20273348381972, 106.45453181698768 49.17572170391459 C107.30020135976969 58.14870992400946, 105.38797380694926 67.50312472274119, 101.33572709213279 75.49127211623642 C97.28348037731631 83.47941950973164, 90.06287694700085 92.03719412714332, 82.14105152808884 97.10460606488596 C74.21922610917683 102.17201800262859, 62.90174188611877 106.01010577882688, 53.804774578660734 105.89574374269226 C44.7078072712027 105.78138170655764, 35.46688021332434 101.2925728010583, 27.559247683340622 96.41843384807825 C19.651615153356907 91.5442948950982, 11.156313424199631 84.05302124091885, 6.358979398758436 76.65091002481195 C1.5616453733172397 69.24879880870505, -1.5008791466879714 60.65387317177264, -1.2247564693065556 52.005766551436814 C-0.9486337919251397 43.35765993110099, 2.887589986673878 32.36421107179091, 8.01571546304693 24.762270302797013 C13.143840939419984 17.160329533803115, 21.303653438657335 10.281262076833025, 29.543996388931763 6.394121937473429 C37.78433933920619 2.506981798113832, 50.070282389264875 1.5715998960930289, 57.45777316469349 1.4394294666394316 C64.84526394012211 1.3072590371858344, 71.42369104480007 4.823490091648899, 73.86894104150346 5.601099360751846 C76.31419103820686 6.378708629854793, 72.33760338473382 5.403239765967996, 72.12927314491388 6.105085081257116" style="stroke: none; stroke-width: 0; fill: rgb(76, 110, 245);"></path><path d="M70.39059821399006 3.8006364904928915 C78.6819213146531 5.763812425256109, 87.94571051620447 11.500244460397155, 93.73905014580518 18.202345005722876 C99.53238977540589 24.904445551048596, 103.81804495646287 34.843815338404966, 105.15063599159434 44.01323976244721 C106.48322702672581 53.18266418648946, 105.06068385231532 64.69063457349667, 101.73459635659397 73.21889154997635 C98.40850886087262 81.74714852645603, 92.60793434384138 89.93181376319144, 85.19411101726622 95.18278162132532 C77.78028769069107 100.4337494794592, 66.6318838209458 104.13521517915422, 57.251656397142995 104.72469869877963 C47.87142897334018 105.31418221840505, 37.123650491907384 102.72461530104097, 28.912746474449342 98.7196827390778 C20.7018424569913 94.71475017711462, 12.889522848076723 88.28315036671235, 7.986232292394746 80.69510332700062 C3.082941736712768 73.1070562872889, -0.4471258542847683 62.30602706322097, -0.5069968596425269 53.19140050080745 C-0.5668678650002855 44.07677393839393, 2.9135462038918085 33.74403399832806, 7.627006260248194 26.007343952519502 C12.34046631660458 18.27065390671095, 19.913658770483217 11.026918066793595, 27.773763478495788 6.771260225956134 C35.63386818650836 2.5156023851186733, 47.17326946030599 0.8513416684577635, 54.78763450832362 0.4733969074947382 C62.40199955634125 0.09545214653171286, 69.98509712248499 3.63728673046892, 73.4599537666016 4.503591660177982 C76.93481041071821 5.369896589887044, 75.89176723321994 5.006183359112119, 75.63677437302329 5.671226485749109 M31.673591159220766 3.1033670460312166 C39.1290196847147 -0.765880779628056, 50.06223868170237 0.35387865603893087, 59.384394480259694 1.5655032873275374 C68.70655027881702 2.777127918616144, 80.55989203887137 5.107665079142425, 87.6065259505647 10.373114833762855 C94.65315986225804 15.638564588383286, 98.6970624918023 24.316940233944067, 101.66419795041972 33.15820181505012 C104.63133340903714 41.99946339615617, 106.9782984976412 54.364309810487235, 105.40933870226924 63.42068432039917 C103.84037890689727 72.47705883031111, 98.56932530080834 81.15913560361078, 92.25043917818789 87.49644887452172 C85.93155305556743 93.83376214543266, 76.04385926871895 98.99563491580032, 67.49602196654652 101.44456394586479 C58.9481846643741 103.89349297592925, 49.853023699201536 104.37601098723205, 40.96341536515332 102.19002305490852 C32.0738070311051 100.004035122585, 20.719255554764178 94.65339131710402, 14.158371962257213 88.32863635192359 C7.597488369750248 82.00388138674316, 3.4656979946366198 73.04484055054272, 1.5981138101115278 64.24149326382594 C-0.26947037441356403 55.43814597710917, -0.045682886474892825 43.8894594912347, 2.952866855106663 35.50855263162298 C5.951416596688219 27.127645772011263, 14.717914903438675 19.32185104730653, 19.589412259600863 13.956052106155632 C24.46090961576305 8.590253165004732, 30.04154788134488 4.976309920450544, 32.18185099207979 3.3137589847175946 C34.32215410281469 1.651208048984645, 31.99081561443891 3.1530937629561016, 32.43123092401031 3.980746491757934" style="stroke: rgb(11, 114, 133); stroke-width: 2; fill: none;"></path></g></svg>