<svg version="1.1" xmlns="http://www.w3.org/2000/svg" viewBox="0 0 232.27921195652175 337.9305366847826">
  <defs>
    <style>
      @font-face {
        font-family: "Virgil";
        src: url("https://excalidraw.com/FG_Virgil.ttf");
      }
      @font-face {
        font-family: "Cascadia";
        src: url("https://excalidraw.com/Cascadia.ttf");
      }
    </style>
  </defs>
  <rect x="0" y="0" width="232.27921195652175" height="337.9305366847826" fill="#f1f3f5"></rect><g transform="translate(131.68393342391437 104.14062499999955)"><path d="M0 0 C0 0, 0 0, 0 0 M0 0 C0 0, 0 0, 0 0" style="stroke: rgb(250, 176, 5); stroke-width: 0.5; fill: none;"></path><path d="M0 0 C0 0, 0 0, 0 0 M0 0 C0 0, 0 0, 0 0 M0.010943876483081157 -0.019578502804356683 C-0.024210694687544245 0.09790197993745445, -0.005490713784364024 0.18884561719863607, -0.009784384428321365 0.27950099982986665 M0.0015026968942598324 0.01290460887266573 C-0.005083234516466821 0.10960865921180074, 0.0007527117658872808 0.20070671899790157, -0.01113216804064783 0.29027140142056285 M0 0.2802309782609882 C0 0.2802309782609882, 0 0.2802309782609882, 0 0.2802309782609882 M0 0.2802309782609882 C0 0.2802309782609882, 0 0.2802309782609882, 0 0.2802309782609882 M0.02106924785751825 0.2996280037461715 C0.006933883896322551 0.18916647418146942, 0.004766584835482283 0.05230664106264629, -0.004468481066675328 0.023757495823909673 M0.010932782187929029 0.2855817106902086 C-0.0010528426738232576 0.21525331370994946, 0.008735370175959697 0.13972856557664096, -0.010452111817204197 -0.006036267180644308" style="stroke: rgb(11, 114, 133); stroke-width: 1; fill: none;"></path></g><g transform="translate(10 10)"><path d="M1.6276555642536361 0.44156846227780094 C63.317936247893186 -1.4476827911694294, 128.17457670339655 0.06519012468230057, 212.9191437490609 -1.6566444015486226 M-0.8256802538173001 -0.6718890203339392 C68.61859897253535 0.06483400649336313, 136.68850339048572 0.6685859348074006, 211.98674626315915 0.23503236301363808 M211.29633251358075 -1.1525259085506157 C212.66878102351157 80.95173804352626, 212.6379407991825 161.83777261279062, 212.24256560000975 318.74723323171344 M212.92704876543826 -0.3547614650391843 C212.24132870365315 117.82020988721469, 211.77749008371563 235.2051339002514, 212.783260995439 318.0203697721393 M212.18428109437588 319.5134236113541 C132.08882054866785 319.89849048527645, 52.95247067710219 319.06723149670114, 0.9469544735024505 318.63162882266687 M212.38369995985522 318.57775305993715 C160.7315974956567 319.1672774235898, 108.86629064070293 319.4620138743133, -0.13255888797507046 318.4734564412435 M0.9737689237068119 318.23539466728823 C-0.6519398058792463 232.51862118057738, -2.433702100569141 146.4902685235504, 1.1926731320783752 -0.9625986757164707 M0.2686173177750953 317.74541328698166 C0.7973868414306715 252.74944535773682, 0.2637411889758675 186.43110903686727, -0.30303251393842373 0.3774243916616746" style="stroke: rgb(11, 114, 133); stroke-width: 2; fill: none;"></path></g><g transform="translate(25.123980978262352 20.56810461956502)"><path d="M29.372804993763566 0.6698539610952139 L56.7746321140263 35.759982680901885 L30.12398981489241 67.30206255201739 L-1.5276480372995138 32.90159151516855" style="stroke: none; stroke-width: 0; fill: rgb(250, 176, 5);"></path><path d="M30.502063607797027 -0.8875880297273397 C35.76098729954091 7.391745313902641, 43.862270518578384 15.823871731099928, 56.3704704037342 34.47006517089903 M29.236061778850853 -0.06187309045344591 C35.58355838693936 7.194606342686167, 42.649603606188236 15.286654487585475, 58.52130802538579 33.55289991479367 M56.61558616072273 34.452770764008164 C49.5113021034718 43.97076175397438, 40.5494100410969 53.26897050023088, 31.161057686433196 67.6052896972422 M57.74972899820989 34.661679106764495 C50.36042588735602 43.19493118976894, 41.81342846708069 52.84170017163072, 30.127711323089898 66.94298475288343 M31.799743389710784 65.60287260968727 C23.38424482109687 58.38292147262749, 15.15537294751695 51.619462697832255, 0.7971421834081411 32.850335294380784 M30.735885408706963 66.11427157424879 C20.691456983446322 55.19528061055833, 11.224079923353337 45.03867104023715, 0.617300090380013 33.692662733606994 M0.4334017392247915 34.73535411991179 C10.591534099709245 20.017088102083655, 20.5623395277001 11.532776489201932, 28.631520366296172 -1.8803985174745321 M-0.26318091433495283 33.99408413749188 C8.094853771310301 24.139484992530193, 14.838233327884229 15.491875239554787, 30.536565867252648 0.5709781525656581" style="stroke: rgb(11, 114, 133); stroke-width: 2; fill: none;"></path></g><g transform="translate(154.00475543478387 250.00297214673856)"><path d="M30.669853961095214 -1.4794439729303122 L60.0140587678585 34.12398981489241 L31.11235467158258 64.6620598431353 L-1.0984084848314524 32.72402870096266" style="stroke: none; stroke-width: 0; fill: rgb(250, 176, 5);"></path><path d="M29.11241197027266 -0.76178296841681 C39.94206657283834 12.50367239439049, 50.34846316441683 21.27795692463526, 58.72414125785565 32.51586446724832 M29.938126909546554 -0.6759492782875896 C36.41162420974427 9.225648238681796, 44.30513083205255 18.48165067321116, 57.806976001750286 34.031787005253136 M58.70684685096478 33.69754943810403 C48.858476629804855 43.984240227208765, 38.81782068890402 56.75762533943639, 31.41558181680739 65.73958698992175 M58.91575519372111 33.91216262895614 C49.7735656244986 43.0651393251173, 41.70864586305389 53.98948750287424, 30.753276872448623 65.61761784792435 M29.413164729252458 67.06435362581652 C19.116025471395655 54.665550580869194, 9.24181589510928 43.80956640771427, -1.149664705619216 34.53499505482614 M29.92456369381398 66.80377197504532 C19.33023136130639 56.501595466423396, 9.572163612797041 45.31165828666643, -0.30733726639300585 34.522813943214715 M0.7353541199117899 34.27872226200998 C9.222527064848691 20.85977568002418, 23.971341611351818 7.053910266514869, 28.119601482525468 -0.7168370131403208 M-0.005915862508118153 34.435400870628655 C10.44639491947368 20.48007442513481, 22.12097029952333 8.90968854939565, 30.570978152565658 -0.313597503118217" style="stroke: rgb(11, 114, 133); stroke-width: 2; fill: none;"></path></g><g transform="translate(60.94259510869733 112.05078125)"><path d="M74.5095889116175 5.407676002466218 C82.90701988581505 8.35758302077849, 91.84118539510013 14.969231464809962, 97.08811528103737 22.31960021050785 C102.33504516697462 29.66996895620574, 105.62156161801272 40.60603111051658, 105.991168227241 49.50988847665355 C106.36077483646929 58.41374584279052, 103.6045271634477 67.74721619229724, 99.30575493640711 75.74274440732964 C95.00698270936653 83.73827262236203, 87.77740833924001 92.73108261526082, 80.1985348649975 97.48305776684788 C72.61966139075498 102.23503291843494, 62.83769470560594 104.43117439837076, 53.832514090952024 104.25459531685196 C44.82733347629811 104.07801623533317, 33.95528681133981 100.97901297922422, 26.167451177074007 96.4235832777351 C18.379615542808207 91.86815357624599, 11.361442382186134 84.87098753492812, 7.105500285357216 76.92201710791724 C2.849558188528298 68.97304668090636, 0.3825222916980925 57.834892587597714, 0.631798596100495 48.72976071566986 C0.8810749005028976 39.62462884374201, 3.600403034878065 29.521414604547658, 8.601158111771632 22.29122587635012 C13.601913188665199 15.061037148152579, 22.35588338158861 9.090250117211745, 30.636329057461896 5.348628346484617 C38.91677473333518 1.607006575757488, 50.41270647395602 -0.2418993139359955, 58.283832167011354 -0.15850474801265335 C66.15495786006669 -0.0751101820893112, 74.0948935766212 4.302190397161212, 77.8630832157939 5.84899574202467 C81.63127285496661 7.395801086888127, 81.28374122448739 8.17933740401937, 80.89297000204755 9.122327321168093 M68.14396431535916 2.125600818081331 C76.40080590163838 3.7810816231261066, 85.74247298561922 9.836976397324232, 91.80517330663227 16.240553744295887 C97.86787362764532 22.644131091267543, 102.45468885480138 31.43990133648046, 104.52016624143751 40.54706489991126 C106.58564362807364 49.654228463342065, 107.24456264679387 61.950000947198625, 104.19803762644904 70.8835351248807 C101.1515126061042 79.81706930256277, 93.6043750452186 88.75914950395347, 86.24101611936851 94.14826996600368 C78.87765719351842 99.5373904280539, 68.94951600209966 102.08447481645729, 60.01788407134848 103.21825789718196 C51.08625214059732 104.35204097790663, 40.73629492317131 104.19979799642871, 32.6512245348615 100.95096845035167 C24.56615414655169 97.70213890427462, 17.114702287972285 91.34147377255184, 11.507461741489628 83.72528062071967 C5.90022119500697 76.10908746888751, 0.187442233208299 64.4160222699618, -0.992218744034453 55.25380953935873 C-2.1718797212772047 46.09159680875565, 0.059714856960314755 36.48131288051833, 4.429495878033116 28.7520042371012 C8.799276899105916 21.022695593684066, 17.280664420959695 13.82554666393382, 25.22646738240235 8.877957678855928 C33.17227034384501 3.9303686937780373, 44.88727645347463 0.0052512757724301196, 52.10431364668906 -0.9335296733661451 C59.32135083990349 -1.8723106225047204, 66.04502605909168 2.324165176128163, 68.52869054168895 3.245271984024477 C71.01235502428621 4.166378791920791, 67.28008494162547 3.9102681557540584, 67.00630054227267 4.593111174011739" style="stroke: none; stroke-width: 0; fill: rgb(250, 176, 5);"></path><path d="M51.76635422972346 0.23610909801534063 C60.234009102156236 -0.6844239557229544, 71.5619996525297 2.554883605674741, 79.41307304454493 6.987840010532146 C87.26414643656015 11.420796415389551, 94.44725633268669 18.95288219526201, 98.87279458181482 26.833847527159772 C103.29833283094294 34.71481285905753, 106.4000007273 45.154959281403116, 105.9663025393137 54.27363200191872 C105.53260435132741 63.392304722434325, 101.42520882317936 73.92790285104198, 96.27060545389702 81.54588385025339 C91.11600208461468 89.1638648494648, 83.27353298747985 96.19025944417811, 75.0386823236197 99.98151799718718 C66.80383165975954 103.77277655019626, 55.820247271821096 105.4283768361077, 46.86150147073607 104.29343516830784 C37.90275566965105 103.15849350050797, 28.612395659696592 98.59514927733372, 21.28620751710956 93.17186799038795 C13.960019374522528 87.74858670344219, 6.355988262221937 79.9727027646033, 2.9043726152138873 71.75374744663321 C-0.5472430317941614 63.53479212866313, -1.009409870929839 52.778025409052994, 0.5765136350612678 43.85813608256744 C2.162437141052375 34.93824675608189, 6.354764339976612 24.98516368147445, 12.419913651160527 18.234411487719882 C18.485062962344443 11.483659293965314, 29.703858597638853 6.359168945869792, 36.96740950216476 3.3536229200400243 C44.23096040669068 0.34807689421025634, 52.07615783411589 0.6018359700174851, 56.001219078316 0.2011353327412735 C59.92628032251611 -0.1995653045349381, 60.422948811262 0.11209284931255092, 60.51777696736539 0.9494190963827549 M53.30014734361743 1.12994875879901 C62.03283318885398 0.3748042864000958, 71.8707299652973 3.8126172006250956, 79.64043405629928 8.506990474721569 C87.41013814730127 13.201363748818043, 95.59742293945638 21.380748558623097, 99.9183718896293 29.296188403377847 C104.23932083980222 37.2116282481326, 106.08393541753318 47.24753228340872, 105.56612775733677 55.99962954325008 C105.04832009714036 64.75172680309144, 101.77007202396327 74.39590021688625, 96.81152592845079 81.80877196242602 C91.85297983293832 89.2216437079658, 84.27536456784841 96.67520344390975, 75.81485118426195 100.4768600164887 C67.3543378006755 104.27851658906765, 55.161283899496084 105.73013086279704, 46.04844562693208 104.61871139789973 C36.935607354368074 103.50729193300242, 28.032316316214054 99.40367710391088, 21.137821548877945 93.80834322710487 C14.243326781541835 88.21300935029886, 7.9183766639921505 79.59867434046994, 4.6814770229154306 71.04670813706367 C1.4445773818387102 62.4947419336574, 0.08757686040331447 51.381715251127645, 1.7164237024176217 42.49654600666724 C3.345270544431929 33.61137676220683, 8.458384682020906 24.47473598056341, 14.454558075001273 17.735692670301212 C20.45073146798164 10.996649360039015, 31.120423527165936 4.830266119085344, 37.69346406029983 2.062286145094056 C44.26650459343372 -0.7056938288972319, 51.15077026844844 1.243065479394744, 53.89280127380464 1.127812826353484 C56.63483227916085 1.0125601733122238, 54.18543442974206 0.652488613214962, 54.145650092437066 1.3707702268464956" style="stroke: rgb(11, 114, 133); stroke-width: 2; fill: none;"></path></g></svg>