<svg version="1.1" xmlns="http://www.w3.org/2000/svg" viewBox="0 0 232.27921195652175 337.9305366847826">
  <defs>
    <style>
      @font-face {
        font-family: "Virgil";
        src: url("https://excalidraw.com/FG_Virgil.ttf");
      }
      @font-face {
        font-family: "Cascadia";
        src: url("https://excalidraw.com/Cascadia.ttf");
      }
    </style>
  </defs>
  <g transform="translate(131.68393342391437 104.14062499999955)"><path d="M0 0 C0 0, 0 0, 0 0 M0 0 C0 0, 0 0, 0 0" style="stroke: rgb(250, 82, 82); stroke-width: 0.5; fill: none;"></path><path d="M0 0 C0 0, 0 0, 0 0 M0 0 C0 0, 0 0, 0 0 M-0.009430495432282124 -0.012243924541157317 C-0.019917694434266914 0.08732760786152165, 0.02159247847783228 0.21621751423846375, 0.012369474403865294 0.3070076443811435 M-0.008724339921413894 -0.0014982159570107543 C0.006847583171414609 0.08888845959245181, 0.009701448058841412 0.1694069759805965, 0.0036467301213095465 0.2704401204412532 M0 0.2802309782609882 C0 0.2802309782609882, 0 0.2802309782609882, 0 0.2802309782609882 M0 0.2802309782609882 C0 0.2802309782609882, 0 0.2802309782609882, 0 0.2802309782609882 M0.02221545940737355 0.2547644224402032 C0.02252874975689975 0.1594268872514637, 0.007668553874720447 0.0699804573038284, -0.017436627483188784 0.018321063698361964 M0.0023978446563937376 0.29119636525506265 C0.011171442457497214 0.18042409056215278, -0.0024799695203683463 0.06904800664536787, 0.008190818955924706 0.0011345930132575562" style="stroke: rgb(11, 114, 133); stroke-width: 1; fill: none;"></path></g><g transform="translate(10 10)"><path d="M0.3706076058839207 0.5432184895879065 L210.95174225653525 -0.6910671328905854 L212.16929826028692 318.7917914214041 L-0.5624819899914572 317.8873219239996" style="stroke: none; stroke-width: 0; fill: rgb(255, 255, 255);"></path><path d="M-1.0428880459830334 1.732356755156738 C80.33972190684207 1.481334687348532, 160.8219748733855 0.03424177906982484, 211.897618640911 0.5038693487109238 M-0.43899555356316766 0.0875211072217102 C46.7480071811485 -1.930265795141866, 93.46414584354476 -1.2893371013587631, 212.13714050549595 0.46464769892555857 M211.66454280369223 -0.9713265122174619 C209.9218998066282 90.03261168133344, 211.4287560745192 178.4610633422626, 213.62345339025072 317.8846598656186 M212.20399856150647 0.36311228148423996 C213.77636362536097 91.51255120284587, 213.64398443367216 182.19541159652357, 211.78769158972258 317.68188735975207 M213.36518880054302 316.9829795500586 C135.11781455257648 316.8059291258373, 62.81707544864512 316.81471113429177, -0.20025951676184592 318.74445161719564 M212.33052641479358 318.2390131414938 C159.25976417661906 316.24644897569465, 106.07119680177082 315.82954456127294, -0.6149887633448942 318.68754029328255 M-1.2784713136077492 318.9917767560841 C-0.6871657413273109 238.6290830116711, 0.25375594774516586 157.8218183822852, 0.9197535205769363 1.1619039309813048 M0.5504840471238709 318.42873360224473 C1.0265590847989507 236.51854098314155, 0.8176082960457309 155.8920023021581, 0.056958806297853395 0.5424920822142728" style="stroke: rgb(11, 114, 133); stroke-width: 2; fill: none;"></path></g><g transform="translate(25.123980978262352 20.56810461956502)"><path d="M30.772267257794738 -1.8871989902108908 L57.27161961704826 33.84374105371535 L31.224403893575072 65.39005464274925 L-0.06143631972372532 32.40741061605513" style="stroke: none; stroke-width: 0; fill: rgb(250, 82, 82);"></path><path d="M31.96969067491591 -1.0614311341196299 C36.22472245356002 6.4998074379741375, 41.47096029559018 16.3198384019538, 58.826975840184446 32.443988060578704 M30.09951155167073 -0.4778893021866679 C41.071026195891356 12.320056490800358, 52.74492849126116 26.32157702559141, 58.78238080073481 33.79683878738433 M56.8731885133717 33.17593548260629 C53.49710751571461 42.292882422269656, 46.567909479898 49.983936601766914, 29.934779161587358 65.91461686376971 M58.770295124541576 34.4091632636264 C48.769433443145715 45.58838135915863, 38.30569014505198 56.066271026204234, 29.64650737028569 66.74697894096863 M28.92262696661055 64.31601313833636 C19.811244437562934 58.39623422699657, 10.727140502164769 46.631488067272876, 0.9254217687994242 33.03420171700418 M30.350737917236984 66.65971082687867 C20.80199925168877 57.37674929591785, 11.401356418016302 46.35161112278126, 0.8607135592028499 33.50421628076583 M1.508713299408555 33.09967575035989 C9.250875361729413 24.428067242819814, 16.630549462046474 15.016395657416432, 31.65182220377028 -0.8904018048197031 M0.7082622824236751 34.528634873218834 C7.797499096710235 24.79218558231369, 16.76982953933999 15.436966191884132, 30.771234559826553 0.2634373875334859" style="stroke: rgb(11, 114, 133); stroke-width: 2; fill: none;"></path></g><g transform="translate(154.00475543478387 250.00297214673856)"><path d="M28.11280100978911 -0.9824564699083567 L58.097817140671964 35.22440389357507 L29.20034676231444 66.12827156071108 L-1.592589383944869 34.1178475972265" style="stroke: none; stroke-width: 0; fill: rgb(250, 82, 82);"></path><path d="M28.93856886588037 -0.3422750886529684 C33.61652318591201 4.688262362616028, 40.92236321410061 14.20292462485459, 56.69806414753532 35.747672194615006 M29.522110697813332 -0.19450585264712572 C39.97675186980695 13.90977503268533, 51.94570166403785 27.307509931572906, 58.05091487434095 33.20510582905263 M57.43001156956291 35.581680888310075 C51.906191328071195 43.26137276947401, 44.973673990861386 50.886991933637546, 29.7249089833349 67.27124243934196 M58.66323935058301 34.71989850979298 C51.723649845041706 42.05872789132199, 44.0869401726346 49.097578185899025, 30.55727106053382 66.22107090853643 M28.12630525790155 65.07081204612297 C22.8062612254545 55.504572437687294, 12.025195620805015 48.124286089557884, -0.96579828299582 33.951081508770585 M30.470002946443856 65.70193567179632 C23.745671067475023 57.84016134715175, 15.3154468639704 52.16969255621059, -0.49578371923416853 34.02408884745091 M-0.9003242496401072 34.44814562238753 C12.124586040508003 19.633878155332056, 24.373082445357 9.634779148641972, 29.109598195180297 -0.585520451888442 M0.5286348732188344 33.73396514635533 C9.478897299747914 23.590243863966315, 18.841693480629473 12.995048438850787, 30.263437387533486 0.3861336288973689" style="stroke: rgb(11, 114, 133); stroke-width: 2; fill: none;"></path></g><g transform="translate(60.94259510869733 112.05078125)"><path d="M69.7897816370068 2.939857446258422 C78.2424464175316 5.171246053333606, 88.33644906914516 12.458516778849994, 94.36505491495654 19.263458757088827 C100.39366076076793 26.06840073532766, 104.6123819943667 34.90155342601745, 105.96141671187513 43.76950931569143 C107.31045142938356 52.63746520536541, 105.95794990170367 63.95358780469654, 102.45926322000712 72.4711940951327 C98.96057653831056 80.98880038556887, 92.26891867436575 89.50564166474669, 84.96929662169583 94.87514705830839 C77.66967456902591 100.24465245187008, 67.91861468231713 103.99092853291002, 58.6615309039876 104.68822645650283 C49.40444712565806 105.38552438009565, 37.73998919599502 102.86929779296264, 29.426793951718615 99.0589345998653 C21.11359870744221 95.24857140676795, 13.745061427448729 89.2471447476899, 8.782359438329173 81.82604729791876 C3.819657449209619 74.40494984814762, 0.16832381484014292 63.61730945835517, -0.34941798299870896 54.53234990123845 C-0.8671597808375608 45.44739034412172, 1.1858543932088992 35.05220701732754, 5.675908651296062 27.31628995521842 C10.165962909383225 19.5803728931093, 18.56348157003861 12.532177830635865, 26.59090756552427 8.116847528583733 C34.618333561009926 3.7015172265316014, 46.211365808060975 1.6731599949777247, 53.84046462421001 0.8243081429056289 C61.46956344035904 -0.024543709166466754, 68.83493454968105 2.258358726948046, 72.36550046241848 3.0237364161511593 C75.89606637515591 3.7891141053542725, 75.08321005857744 4.4875896431889295, 75.02386010063455 5.416574278124308 M55.07942775220304 -0.18896715366054906 C64.0801994572225 -0.3448219933302804, 74.46412332177395 4.20429163996543, 82.22917564604626 9.240209271150071 C89.99422797031856 14.276126902334713, 97.6613683528483 22.35785097660923, 101.66974169783688 30.026538633447295 C105.67811504282547 37.69522629028536, 107.07786166940468 46.20072706965454, 106.27941571597773 55.25233521217845 C105.48096976255079 64.30394335470235, 102.21275821749313 76.63679703002701, 96.87906597727519 84.33618748859075 C91.54537373705725 92.0355779471545, 82.66368001294539 98.28421235611195, 74.27726227467011 101.4486779635609 C65.89084453639482 104.61314357100984, 55.79604457948674 104.92498061031037, 46.560559547623456 103.32298113328446 C37.32507451576017 101.72098165625854, 26.26566264308476 97.3987438626369, 18.864352083490402 91.83668110140543 C11.463041523896045 86.27461834017396, 5.350650941237179 78.4368909050996, 2.15269619005732 69.95060456589562 C-1.0452585611225387 61.46431822669164, -2.252788519904268 49.737692362516555, -0.32337642358874774 40.918963066181554 C1.6060356727267724 32.100233769846554, 7.494213493235388 23.44498265393812, 13.72916876795044 17.038228787885608 C19.964124042665492 10.631474921833096, 30.516431589032557 5.291059957188507, 37.08635522470157 2.4784398698664774 C43.656278860370584 -0.3341802174555517, 50.48138042104249 0.3440568088082472, 53.14871058196453 0.1625082639534341 C55.81604074288657 -0.019040280901378992, 52.66004012824788 0.3871875019007074, 53.09033619023382 1.3891486007375988" style="stroke: none; stroke-width: 0; fill: rgb(250, 82, 82);"></path><path d="M28.35957938676771 5.379088051280526 C35.96891725492712 0.8880258048928251, 47.71875774566629 0.39546026516451127, 56.708102116344264 1.0143904571415945 C65.69744648702225 1.6333206491186778, 74.95895632811502 4.234781975070743, 82.29564561083558 9.092669203143025 C89.63233489355613 13.950556431215308, 96.98004668359495 21.917870653119596, 100.72823781266756 30.161713825575283 C104.47642894174017 38.405556998030974, 105.7342231435453 49.488315530728705, 104.7847923852712 58.55572823787715 C103.83536162699711 67.6231409450256, 100.44680415143742 77.63659826333358, 95.031653263023 84.56619006846594 C89.61650237460859 91.4957818735983, 80.82002656992928 96.9941264821536, 72.29388705478466 100.13327906867127 C63.76774753964004 103.27243165518894, 52.96128968951152 104.83679968375812, 43.87481617215527 103.40110558757198 C34.788342654799024 101.96541149138584, 24.512550599324513 97.20451676231596, 17.77504595064717 91.51911449155443 C11.037541301969824 85.8337122207929, 6.1162993372979795 77.6108950922486, 3.449788280091205 69.2886919630028 C0.7832772228844314 60.96648883375701, -0.12245492439405692 50.49351504785345, 1.7759796074065264 41.5858957160797 C3.6744141392071095 32.678276384305946, 9.757404354332309 22.143342985364274, 14.840395470894705 15.842975972360314 C19.923386587457102 9.542608959356354, 28.78695446013454 5.684130994931508, 32.27392630678091 3.7836936380559436 C35.76089815342728 1.8832562811803786, 35.4289036477068 3.4186271645543185, 35.7622265507729 4.440351831106923 M58.36738931588133 1.1546867751991385 C67.01697233483208 1.5117748969514675, 77.84031580568161 5.45430482704695, 85.33573094592037 10.650828725980617 C92.83114608615914 15.847352624914283, 100.23818365523837 24.078563965169828, 103.33988015731387 32.33383016880114 C106.44157665938937 40.58909637243246, 105.40406225991632 51.311643984051805, 103.9459099583734 60.18242594776851 C102.4877576568305 69.0532079114852, 100.34273921975972 78.48047409211142, 94.59096634805641 85.55852195110134 C88.8391934763531 92.63656981009126, 78.45502057057628 99.7087368353609, 69.43527272815356 102.65071310170799 C60.41552488573084 105.59268936805509, 49.51411121877811 105.32247929304907, 40.47247929352008 103.2103795491839 C31.430847368262047 101.09827980531873, 21.54603355075896 96.10802123490137, 15.185481176605357 89.97811463851698 C8.824928802451755 83.8482080421326, 4.6109928876154544 74.9573468829843, 2.309165048598466 66.43093997087757 C0.007337209581476767 57.90453305877085, -0.8452313791104573 47.75590838276255, 1.374514142503422 38.81967316587663 C3.5942596641173012 29.88343794899071, 8.579084216803782 19.229204766340725, 15.627638178281742 12.813528669562054 C22.676192139759703 6.397852572783381, 36.44815068581329 2.2098858403219284, 43.66583791137119 0.32561658520459247 C50.883525136929094 -1.5586526699127436, 56.641819202892336 1.147244953630268, 58.93376153162916 1.5079131388580365 C61.22570386036598 1.868581324085805, 57.63353887504135 1.7657042048357177, 57.41749188379215 2.4896256965712027" style="stroke: rgb(11, 114, 133); stroke-width: 2; fill: none;"></path></g></svg>